<?xml version="1.0" encoding="UTF-8"?>
<svg id="Layer_8" data-name="Layer 8" xmlns="http://www.w3.org/2000/svg" viewBox="0 0 191.54 188">
  <defs>
    <style>
      .cls-1 {
        fill: #231630;
        stroke-width: 0px;
      }
    </style>
  </defs>
  <path class="cls-1" d="M65.5,36.81c-3.18,0-4.72,2.26-4.72,7.09v5.07h9.33v-5.09c0-4.59-1.06-7.07-4.61-7.07ZM103.66,56.4c-4.51,0-7.48,1.71-7.48,7.9v.78c0,3.51,1.27,6,4.35,6,3.31,0,4.77-2.28,4.77-8.98v-5.7h-1.64ZM103.66,56.4c-4.51,0-7.48,1.71-7.48,7.9v.78c0,3.51,1.27,6,4.35,6,3.31,0,4.77-2.28,4.77-8.98v-5.7h-1.64ZM65.5,36.81c-3.18,0-4.72,2.26-4.72,7.09v5.07h9.33v-5.09c0-4.59-1.06-7.07-4.61-7.07ZM65.5,36.81c-3.18,0-4.72,2.26-4.72,7.09v5.07h9.33v-5.09c0-4.59-1.06-7.07-4.61-7.07ZM103.66,56.4c-4.51,0-7.48,1.71-7.48,7.9v.78c0,3.51,1.27,6,4.35,6,3.31,0,4.77-2.28,4.77-8.98v-5.7h-1.64ZM163.04,100.29c-3.23,0-4.9,1.62-4.9,4.85v28.69h3.53c3.33,0,6.27-2.27,6.27-6.8v-21.89c0-3.23-1.67-4.85-4.9-4.85ZM163.04,100.29c-3.23,0-4.9,1.62-4.9,4.85v28.69h3.53c3.33,0,6.27-2.27,6.27-6.8v-21.89c0-3.23-1.67-4.85-4.9-4.85ZM103.66,56.4c-4.51,0-7.48,1.71-7.48,7.9v.78c0,3.51,1.27,6,4.35,6,3.31,0,4.77-2.28,4.77-8.98v-5.7h-1.64ZM65.5,36.81c-3.18,0-4.72,2.26-4.72,7.09v5.07h9.33v-5.09c0-4.59-1.06-7.07-4.61-7.07ZM65.5,36.81c-3.18,0-4.72,2.26-4.72,7.09v5.07h9.33v-5.09c0-4.59-1.06-7.07-4.61-7.07ZM103.66,56.4c-4.51,0-7.48,1.71-7.48,7.9v.78c0,3.51,1.27,6,4.35,6,3.31,0,4.77-2.28,4.77-8.98v-5.7h-1.64ZM163.04,100.29c-3.23,0-4.9,1.62-4.9,4.85v28.69h3.53c3.33,0,6.27-2.27,6.27-6.8v-21.89c0-3.23-1.67-4.85-4.9-4.85ZM163.04,100.29c-3.23,0-4.9,1.62-4.9,4.85v28.69h3.53c3.33,0,6.27-2.27,6.27-6.8v-21.89c0-3.23-1.67-4.85-4.9-4.85ZM103.66,56.4c-4.51,0-7.48,1.71-7.48,7.9v.78c0,3.51,1.27,6,4.35,6,3.31,0,4.77-2.28,4.77-8.98v-5.7h-1.64ZM65.5,36.81c-3.18,0-4.72,2.26-4.72,7.09v5.07h9.33v-5.09c0-4.59-1.06-7.07-4.61-7.07ZM-.81,0v188h192.35V0H-.81ZM48,116.78h-14.88v-11.64c0-3.24-1.61-4.86-4.74-4.86s-4.74,1.62-4.74,5.29v5.28c0,4.42.57,5.93,3.42,8.52l14.31,13.05c4.17,3.78,6.25,8.41,6.25,15.32v9.49c0,10.89-7.11,14.77-20,14.77-11.56,0-19.62-3.88-19.62-16.18v-12.61h14.89v14.23c0,3.24,1.6,4.85,4.73,4.85s4.74-1.61,4.74-5.93v-6.68c0-2.81-.95-6.26-3.6-8.74l-13.46-12.51c-4.74-4.31-6.63-7.98-6.63-14.45v-7.55c0-11.97,6.53-15.85,19.71-15.85,11.57,0,19.62,3.88,19.62,16.17v10.03ZM50.61,23.98h-10.36v54.95h-9.89V23.98h-10.29v-9.18h30.54v9.18ZM51.06,45.53c0-6.8,2.14-17.06,14.46-17.06,10.61,0,14.06,7.16,14.06,16.99v11.25h-18.89v7.3c0,3.84.89,7.35,4.65,7.35s4.42-3.52,4.42-7.1v-.24h9.64v.23c0,5.21-1.12,15.44-13.83,15.44s-14.51-7.83-14.51-17.88v-16.28ZM94.97,100.33h-13.32v71.67h-16.65v-71.67h-13.42v-9.82h43.39v9.82ZM86.78,65.28v-.87c0-12.24,8.25-15.5,17.2-15.5h1.14v-6.34c0-3.89-.46-6.08-3.47-6.08s-3.61,2.28-3.61,5.37v.81h-9.72v-.64c0-7.19,2.76-13.56,13.68-13.56,9.58,0,12.94,5.29,12.94,13.32v26.96c0,3.13.01,8.29.19,10.18h-9.03c-.2-.94-.55-2.94-.64-3.65-1.69,3.04-4.38,4.41-8.2,4.41-7.46,0-10.48-6.92-10.48-14.41ZM135.72,172h-36.83v-81.49h36.73v10.47h-20.08v21.63h19.49v10.14h-19.49v28.68h20.18v10.57ZM135.84,44.79v34.14h-9.89v-35.29c0-9.89,0-12.16-.1-14.4h9.45c.27,1.51.27,2.67.36,4.38,1.74-3.35,4.73-5.15,8.73-5.15s6.74,1.77,7.96,5.36c1.75-2.76,4.33-5.36,9.54-5.36s9.81,2.72,9.81,12.43v38.03h-9.89v-36.22c0-3.47-.91-5.37-3.69-5.37-3.48,0-4.31,2.69-4.31,7.59v34h-9.97v-35.99c0-4.52-1.35-5.6-3.72-5.6-3.53,0-4.28,2.71-4.28,7.45ZM184,125.95c0,10.36-6.86,17.91-19.39,17.91-1.96,0-4.12-.22-6.47-.65v28.79h-16.74v-65.35c0-12.19,9.4-16.07,21.64-16.07s20.96,3.88,20.96,16.18v19.19ZM163.04,100.29c-3.23,0-4.9,1.62-4.9,4.85v28.69h3.53c3.33,0,6.27-2.27,6.27-6.8v-21.89c0-3.23-1.67-4.85-4.9-4.85ZM105.3,56.4h-1.64c-4.51,0-7.48,1.71-7.48,7.9v.78c0,3.51,1.27,6,4.35,6,3.31,0,4.77-2.28,4.77-8.98v-5.7ZM70.11,43.88c0-4.59-1.06-7.07-4.61-7.07-3.18,0-4.72,2.26-4.72,7.09v5.07h9.33v-5.09ZM65.5,36.81c-3.18,0-4.72,2.26-4.72,7.09v5.07h9.33v-5.09c0-4.59-1.06-7.07-4.61-7.07ZM103.66,56.4c-4.51,0-7.48,1.71-7.48,7.9v.78c0,3.51,1.27,6,4.35,6,3.31,0,4.77-2.28,4.77-8.98v-5.7h-1.64ZM163.04,100.29c-3.23,0-4.9,1.62-4.9,4.85v28.69h3.53c3.33,0,6.27-2.27,6.27-6.8v-21.89c0-3.23-1.67-4.85-4.9-4.85ZM163.04,100.29c-3.23,0-4.9,1.62-4.9,4.85v28.69h3.53c3.33,0,6.27-2.27,6.27-6.8v-21.89c0-3.23-1.67-4.85-4.9-4.85ZM103.66,56.4c-4.51,0-7.48,1.71-7.48,7.9v.78c0,3.51,1.27,6,4.35,6,3.31,0,4.77-2.28,4.77-8.98v-5.7h-1.64ZM65.5,36.81c-3.18,0-4.72,2.26-4.72,7.09v5.07h9.33v-5.09c0-4.59-1.06-7.07-4.61-7.07ZM65.5,36.81c-3.18,0-4.72,2.26-4.72,7.09v5.07h9.33v-5.09c0-4.59-1.06-7.07-4.61-7.07ZM103.66,56.4c-4.51,0-7.48,1.71-7.48,7.9v.78c0,3.51,1.27,6,4.35,6,3.31,0,4.77-2.28,4.77-8.98v-5.7h-1.64ZM103.66,56.4c-4.51,0-7.48,1.71-7.48,7.9v.78c0,3.51,1.27,6,4.35,6,3.31,0,4.77-2.28,4.77-8.98v-5.7h-1.64ZM65.5,36.81c-3.18,0-4.72,2.26-4.72,7.09v5.07h9.33v-5.09c0-4.59-1.06-7.07-4.61-7.07ZM65.5,36.81c-3.18,0-4.72,2.26-4.72,7.09v5.07h9.33v-5.09c0-4.59-1.06-7.07-4.61-7.07ZM65.5,36.81c-3.18,0-4.72,2.26-4.72,7.09v5.07h9.33v-5.09c0-4.59-1.06-7.07-4.61-7.07Z"/>
</svg>