<?xml version="1.0" encoding="UTF-8"?>
<svg id="Layer_3" data-name="Layer 3" xmlns="http://www.w3.org/2000/svg" xmlns:xlink="http://www.w3.org/1999/xlink" viewBox="0 0 208 208">
  <defs>
    <style>
      .cls-1 {
        fill: url(#linear-gradient);
      }

      .cls-1, .cls-2, .cls-3 {
        stroke-width: 0px;
      }

      .cls-2 {
        fill: #4f476d;
      }

      .cls-4 {
        fill: #231630;
        stroke: #231530;
        stroke-miterlimit: 10;
        stroke-width: 3px;
      }

      .cls-3 {
        fill: #8591c9;
      }
    </style>
    <linearGradient id="linear-gradient" x1="52.72" y1="28.94" x2="141.26" y2="158.54" gradientUnits="userSpaceOnUse">
      <stop offset="0" stop-color="#8591c9"/>
      <stop offset=".55" stop-color="#4e466d"/>
      <stop offset=".97" stop-color="#2c2c54"/>
    </linearGradient>
  </defs>
  <circle class="cls-4" cx="104" cy="104.01" r="96"/>
  <path class="cls-1" d="M191.53,64.51h-50.75v49.07h-49.07v49.06H27.99c-2.48-3.21-4.77-6.58-6.83-10.1-2.32-3.95-4.37-8.08-6.11-12.37-.78-1.91-1.5-3.84-2.15-5.8-.4-1.19-.77-2.4-1.12-3.61-.14-.46-.26-.91-.38-1.37-.55-1.98-1.03-3.99-1.45-6.02-.16-.78-.31-1.57-.44-2.35-.03-.17-.07-.35-.1-.53-.13-.75-.25-1.51-.36-2.27-.46-3.05-.77-6.14-.92-9.27-.02-.37-.04-.75-.05-1.13-.05-1.26-.08-2.53-.08-3.81C8,50.98,50.98,8,104,8c1.11,0,2.2.02,3.3.07.55.01,1.11.03,1.66.07.71.03,1.42.08,2.13.13.35.02.71.04,1.05.09.54.03,1.08.09,1.63.14.08.01.16.02.24.03.68.07,1.37.14,2.04.23.19.02.38.04.57.08.63.08,1.26.16,1.89.26.11.02.21.03.31.05.74.11,1.49.23,2.21.37.62.11,1.23.22,1.83.35.35.07.69.13,1.04.21.4.09.79.17,1.18.26.62.14,1.24.28,1.84.43.6.14,1.19.29,1.78.46.72.18,1.43.39,2.14.6.72.21,1.42.42,2.13.64,2.1.67,4.19,1.41,6.23,2.21,1.45.57,2.9,1.18,4.32,1.82.08.03.14.07.22.1.48.22.97.44,1.44.67.15.07.29.14.44.22.31.15.62.3.93.46.42.21.85.41,1.26.63.66.34,1.31.68,1.95,1.03.52.28,1.04.58,1.55.87.42.24.85.48,1.26.73.53.31,1.06.63,1.59.95.56.35,1.13.69,1.67,1.05.61.39,1.21.8,1.82,1.21.68.44,1.36.91,2.02,1.39.63.44,1.25.9,1.87,1.36.62.47,1.23.94,1.83,1.42.22.16.42.34.64.51.61.49,1.23.99,1.82,1.5h-45.93c-.25-.05-.51-.11-.76-.16-.43-.1-.88-.18-1.32-.26-1.52-.28-3.06-.52-4.62-.7-.41-.05-.82-.11-1.25-.14-.21-.03-.4-.05-.61-.07-.43-.04-.88-.09-1.32-.12-.26-.02-.53-.04-.79-.05-.41-.03-.83-.05-1.25-.08-.61-.03-1.2-.07-1.8-.08-.73-.02-1.45-.03-2.18-.03-41.49,0-75.12,33.63-75.12,75.12,0,1.36.03,2.69.11,4.02.03.67.08,1.33.13,2,.07.85.15,1.68.25,2.52.04.48.11.95.17,1.42.08.65.17,1.29.28,1.93,0,.02,0,.04.01.07.09.63.21,1.26.33,1.89.11.64.24,1.28.38,1.91.13.64.27,1.27.43,1.9.14.63.3,1.26.48,1.88.16.63.34,1.25.52,1.85.17.62.37,1.24.57,1.84.78,2.44,1.69,4.82,2.72,7.14h.01c.87,1.98,1.82,3.92,2.87,5.8h31.08v-49.06h49.07v-49.07h59.01c5.72,6.76,10.52,14.31,14.21,22.47Z"/>
  <path class="cls-2" d="M200,104.01c0,53.02-42.98,96-96,96-.82,0-1.65-.01-2.47-.03-.82-.02-1.65-.05-2.46-.1-.49-.02-.98-.04-1.45-.09-.49-.02-.98-.06-1.46-.1-.41-.03-.82-.08-1.24-.12-.46-.03-.9-.08-1.34-.13-.57-.05-1.14-.12-1.7-.2-.27-.03-.53-.06-.8-.11-.04-.01-.1-.01-.15-.02-.04-.01-.09-.01-.13-.02-.59-.08-1.18-.16-1.77-.26-.47-.07-.94-.14-1.41-.23-.35-.05-.68-.12-1.03-.18-.43-.08-.88-.16-1.32-.25-.28-.05-.55-.11-.84-.17-.62-.12-1.23-.26-1.84-.4-.46-.1-.92-.21-1.39-.33-.3-.08-.62-.15-.92-.23-.13-.03-.26-.07-.39-.1-.11-.03-.22-.07-.33-.1-.24-.05-.47-.12-.69-.17-.24-.07-.47-.13-.69-.2-.17-.05-.35-.1-.51-.14-.17-.05-.35-.1-.51-.15-.35-.1-.68-.2-1.02-.3-.35-.11-.69-.21-1.04-.31-.11-.03-.22-.07-.33-.11-.35-.11-.68-.22-1.03-.34-.1-.03-.18-.07-.28-.1-.24-.08-.48-.16-.7-.24-.24-.08-.48-.16-.7-.25-.08-.02-.16-.04-.24-.08-.47-.16-.93-.34-1.39-.51-.47-.17-.92-.35-1.38-.53-.01-.01-.03-.01-.04-.02l-.42-.16c-.49-.19-.99-.4-1.47-.61-.03-.01-.05-.02-.09-.03-.04-.02-.1-.03-.14-.05-.08-.03-.16-.07-.25-.1-.18-.08-.36-.16-.54-.24-.54-.24-1.1-.48-1.63-.72h-.01c-.6-.27-1.19-.55-1.79-.84-.59-.28-1.18-.57-1.77-.87s-1.17-.6-1.76-.91c-.59-.3-1.16-.62-1.74-.94-.26-.13-.52-.28-.78-.44-.27-.15-.53-.3-.79-.46-.18-.1-.37-.21-.56-.33-.27-.16-.55-.33-.82-.49-.24-.15-.48-.29-.7-.44-.09-.04-.16-.09-.25-.14-.33-.2-.65-.4-.98-.62-.24-.14-.48-.29-.72-.46-.23-.15-.47-.3-.69-.47-.27-.17-.54-.36-.8-.53-.27-.18-.53-.37-.8-.55-.03-.01-.07-.03-.1-.07-.13-.08-.25-.16-.38-.26-.13-.1-.25-.18-.38-.27-1.5-1.05-2.95-2.15-4.38-3.29-.21-.16-.4-.33-.61-.5-.05-.04-.11-.09-.17-.14-.17-.14-.36-.28-.53-.43-.26-.22-.53-.43-.79-.65-.24-.2-.48-.4-.7-.61-.08-.07-.16-.14-.24-.21-.15-.14-.3-.27-.46-.41-.83-.72-1.65-1.45-2.44-2.21h38.31c.74.3,1.49.57,2.23.83.79.28,1.58.55,2.38.8.74.24,1.49.47,2.23.67.05.02.12.03.18.05.52.15,1.05.29,1.57.42.34.09.66.16.99.25.37.09.74.17,1.12.26.91.21,1.82.4,2.74.56.34.07.67.13,1.01.18.12.02.24.04.36.07.38.07.77.13,1.15.18.6.1,1.2.17,1.8.25.17.02.34.04.51.07.49.06.96.12,1.45.16.48.05.97.1,1.45.13.33.03.65.05.98.08.46.03.92.07,1.39.09.53.03,1.07.04,1.62.06.75.02,1.5.03,2.24.03,41.49,0,75.12-33.63,75.12-75.12,0-.74-.01-1.46-.03-2.19-.02-.63-.04-1.27-.08-1.9-.02-.38-.04-.76-.08-1.14-.01-.3-.03-.6-.07-.89-.03-.43-.07-.88-.12-1.31-.05-.6-.12-1.19-.2-1.78-.06-.56-.14-1.13-.23-1.68-.24-1.7-.54-3.37-.9-5.03-.11-.52-.23-1.04-.35-1.55-.03-.11-.05-.22-.09-.34-.14-.6-.29-1.18-.46-1.76-.01-.09-.04-.17-.08-.27-.16-.65-.36-1.3-.55-1.94-.21-.68-.42-1.37-.65-2.05-.22-.67-.46-1.33-.69-2.01t-.01-.02c-.25-.66-.5-1.33-.77-2-.26-.66-.53-1.32-.82-1.97-.28-.65-.56-1.3-.88-1.94-.29-.65-.6-1.29-.92-1.92h-.01c-.99-1.98-2.07-3.93-3.24-5.8h23.62c.86,1.91,1.66,3.84,2.39,5.8.52,1.39,1.01,2.8,1.46,4.22.2.59.38,1.17.55,1.77.18.59.35,1.16.51,1.75.22.78.43,1.56.63,2.34.08.29.15.6.22.9.14.53.26,1.05.37,1.58.1.37.17.74.25,1.12.16.74.31,1.49.44,2.22.17.92.34,1.85.48,2.79.13.78.24,1.57.34,2.36.04.26.08.53.11.79.01.08.02.16.02.24.05.36.1.73.13,1.1.01.09.02.17.03.26.05.48.1.97.14,1.44.12,1.29.21,2.58.27,3.87.04.81.08,1.64.1,2.46.01.36.02.72.02,1.08.01.47.01.92.01,1.39Z"/>
  <path class="cls-3" d="M118.31,42.04l22.47,22.47h50.75c-3.56-7.84-8.21-15.36-14.21-22.47h-59.01Z"/>
  <path class="cls-3" d="M15.05,140.18c2.71,6.82,7.41,15.47,12.94,22.47h63.72s-22.47-22.47-22.47-22.47H15.05Z"/>
  <polygon class="cls-3" points="69.24 91.11 91.71 113.58 140.78 113.58 117.86 91.11 69.24 91.11"/>
</svg>