<?xml version="1.0" encoding="UTF-8"?>
<svg id="Layer_3" data-name="Layer 3" xmlns="http://www.w3.org/2000/svg" xmlns:xlink="http://www.w3.org/1999/xlink" viewBox="0 0 392 208">
  <defs>
    <style>
      .cls-1 {
        fill: #7274a2;
      }

      .cls-1, .cls-2, .cls-3, .cls-4, .cls-5 {
        stroke-width: 0px;
      }

      .cls-2 {
        fill: url(#linear-gradient);
      }

      .cls-3 {
        fill: #4f476d;
      }

      .cls-4 {
        fill: #50486e;
      }

      .cls-6 {
        fill: #231630;
        stroke: #231530;
        stroke-miterlimit: 10;
        stroke-width: 3px;
      }

      .cls-5 {
        fill: #8591c9;
      }
    </style>
    <linearGradient id="linear-gradient" x1="236.72" y1="28.94" x2="325.26" y2="158.54" gradientUnits="userSpaceOnUse">
      <stop offset="0" stop-color="#8591c9"/>
      <stop offset=".55" stop-color="#4e466d"/>
      <stop offset=".97" stop-color="#2c2c54"/>
    </linearGradient>
  </defs>
  <circle class="cls-6" cx="288" cy="104.01" r="96"/>
  <path class="cls-2" d="M375.53,64.51h-50.75v49.07h-49.07v49.06h-63.72c-2.48-3.21-4.77-6.58-6.83-10.1-2.32-3.95-4.37-8.08-6.11-12.37-.78-1.91-1.5-3.84-2.15-5.8-.4-1.19-.77-2.4-1.12-3.61-.14-.46-.26-.91-.38-1.37-.55-1.98-1.03-3.99-1.45-6.02-.16-.78-.31-1.57-.44-2.35-.03-.17-.07-.35-.1-.53-.13-.75-.25-1.51-.36-2.27-.46-3.05-.77-6.14-.92-9.27-.02-.37-.04-.75-.05-1.13-.05-1.26-.08-2.53-.08-3.81,0-53.03,42.98-96,96-96,1.11,0,2.2.02,3.3.07.55.01,1.11.03,1.66.07.71.03,1.42.08,2.13.13.35.02.71.04,1.05.09.54.03,1.08.09,1.63.14.08.01.16.02.24.03.68.07,1.37.14,2.04.23.19.02.38.04.57.08.63.08,1.26.16,1.89.26.11.02.21.03.31.05.74.11,1.49.23,2.21.37.62.11,1.23.22,1.83.35.35.07.69.13,1.04.21.4.09.79.17,1.18.26.62.14,1.24.28,1.84.43.6.14,1.19.29,1.78.46.72.18,1.43.39,2.14.6.72.21,1.42.42,2.13.64,2.1.67,4.19,1.41,6.23,2.21,1.45.57,2.9,1.18,4.32,1.82.08.03.14.07.22.1.48.22.97.44,1.44.67.15.07.29.14.44.22.31.15.62.3.93.46.42.21.85.41,1.26.63.66.34,1.31.68,1.95,1.03.52.28,1.04.58,1.55.87.42.24.85.48,1.26.73.53.31,1.06.63,1.59.95.56.35,1.13.69,1.67,1.05.61.39,1.21.8,1.82,1.21.68.44,1.36.91,2.02,1.39.63.44,1.25.9,1.87,1.36.62.47,1.23.94,1.83,1.42.22.16.42.34.64.51.61.49,1.23.99,1.82,1.5h-45.93c-.25-.05-.51-.11-.76-.16-.43-.1-.88-.18-1.32-.26-1.52-.28-3.06-.52-4.62-.7-.41-.05-.82-.11-1.25-.14-.21-.03-.4-.05-.61-.07-.43-.04-.88-.09-1.32-.12-.26-.02-.53-.04-.79-.05-.41-.03-.83-.05-1.25-.08-.61-.03-1.2-.07-1.8-.08-.73-.02-1.45-.03-2.18-.03-41.49,0-75.12,33.63-75.12,75.12,0,1.36.03,2.69.11,4.02.03.67.08,1.33.13,2,.07.85.15,1.68.25,2.52.04.48.11.95.17,1.42.08.65.17,1.29.28,1.93,0,.02,0,.04.01.07.09.63.21,1.26.33,1.89.11.64.24,1.28.38,1.91.13.64.27,1.27.43,1.9.14.63.3,1.26.48,1.88.16.63.34,1.25.52,1.85.17.62.37,1.24.57,1.84.78,2.44,1.69,4.82,2.72,7.14h.01c.87,1.98,1.82,3.92,2.87,5.8h31.08v-49.06h49.07v-49.07h59.01c5.72,6.76,10.52,14.31,14.21,22.47Z"/>
  <path class="cls-3" d="M384,104.01c0,53.02-42.98,96-96,96-.82,0-1.65-.01-2.47-.03-.82-.02-1.65-.05-2.46-.1-.49-.02-.98-.04-1.45-.09-.49-.02-.98-.06-1.46-.1-.41-.03-.82-.08-1.24-.12-.46-.03-.9-.08-1.34-.13-.57-.05-1.14-.12-1.7-.2-.27-.03-.53-.06-.8-.11-.04-.01-.1-.01-.15-.02-.04-.01-.09-.01-.13-.02-.59-.08-1.18-.16-1.77-.26-.47-.07-.94-.14-1.41-.23-.35-.05-.68-.12-1.03-.18-.43-.08-.88-.16-1.32-.25-.28-.05-.55-.11-.84-.17-.62-.12-1.23-.26-1.84-.4-.46-.1-.92-.21-1.39-.33-.3-.08-.62-.15-.92-.23-.13-.03-.26-.07-.39-.1-.11-.03-.22-.07-.33-.1-.24-.05-.47-.12-.69-.17-.24-.07-.47-.13-.69-.2-.17-.05-.35-.1-.51-.14-.17-.05-.35-.1-.51-.15-.35-.1-.68-.2-1.02-.3-.35-.11-.69-.21-1.04-.31-.11-.03-.22-.07-.33-.11-.35-.11-.68-.22-1.03-.34-.1-.03-.18-.07-.28-.1-.24-.08-.48-.16-.7-.24-.24-.08-.48-.16-.7-.25-.08-.02-.16-.04-.24-.08-.47-.16-.93-.34-1.39-.51-.47-.17-.92-.35-1.38-.53-.01-.01-.03-.01-.04-.02l-.42-.16c-.49-.19-.99-.4-1.47-.61-.03-.01-.05-.02-.09-.03-.04-.02-.1-.03-.14-.05-.08-.03-.16-.07-.25-.1-.18-.08-.36-.16-.54-.24-.54-.24-1.1-.48-1.63-.72h-.01c-.6-.27-1.19-.55-1.79-.84-.59-.28-1.18-.57-1.77-.87s-1.17-.6-1.76-.91c-.59-.3-1.16-.62-1.74-.94-.26-.13-.52-.28-.78-.44-.27-.15-.53-.3-.79-.46-.18-.1-.37-.21-.56-.33-.27-.16-.55-.33-.82-.49-.24-.15-.48-.29-.7-.44-.09-.04-.16-.09-.25-.14-.33-.2-.65-.4-.98-.62-.24-.14-.48-.29-.72-.46-.23-.15-.47-.3-.69-.47-.27-.17-.54-.36-.8-.53-.27-.18-.53-.37-.8-.55-.03-.01-.07-.03-.1-.07-.13-.08-.25-.16-.38-.26-.13-.1-.25-.18-.38-.27-1.5-1.05-2.95-2.15-4.38-3.29-.21-.16-.4-.33-.61-.5-.05-.04-.11-.09-.17-.14-.17-.14-.36-.28-.53-.43-.26-.22-.53-.43-.79-.65-.24-.2-.48-.4-.7-.61-.08-.07-.16-.14-.24-.21-.15-.14-.3-.27-.46-.41-.83-.72-1.65-1.45-2.44-2.21h38.31c.74.3,1.49.57,2.23.83.79.28,1.58.55,2.38.8.74.24,1.49.47,2.23.67.05.02.12.03.18.05.52.15,1.05.29,1.57.42.34.09.66.16.99.25.37.09.74.17,1.12.26.91.21,1.82.4,2.74.56.34.07.67.13,1.01.18.12.02.24.04.36.07.38.07.77.13,1.15.18.6.1,1.2.17,1.8.25.17.02.34.04.51.07.49.06.96.12,1.45.16.48.05.97.1,1.45.13.33.03.65.05.98.08.46.03.92.07,1.39.09.53.03,1.07.04,1.62.06.75.02,1.5.03,2.24.03,41.49,0,75.12-33.63,75.12-75.12,0-.74-.01-1.46-.03-2.19-.02-.63-.04-1.27-.08-1.9-.02-.38-.04-.76-.08-1.14-.01-.3-.03-.6-.07-.89-.03-.43-.07-.88-.12-1.31-.05-.6-.12-1.19-.2-1.78-.06-.56-.14-1.13-.23-1.68-.24-1.7-.54-3.37-.9-5.03-.11-.52-.23-1.04-.35-1.55-.03-.11-.05-.22-.09-.34-.14-.6-.29-1.18-.46-1.76-.01-.09-.04-.17-.08-.27-.16-.65-.36-1.3-.55-1.94-.21-.68-.42-1.37-.65-2.05-.22-.67-.46-1.33-.69-2.01t-.01-.02c-.25-.66-.5-1.33-.77-2-.26-.66-.53-1.32-.82-1.97-.28-.65-.56-1.3-.88-1.94-.29-.65-.6-1.29-.92-1.92h-.01c-.99-1.98-2.07-3.93-3.24-5.8h23.62c.86,1.91,1.66,3.84,2.39,5.8.52,1.39,1.01,2.8,1.46,4.22.2.59.38,1.17.55,1.77.18.59.35,1.16.51,1.75.22.78.43,1.56.63,2.34.08.29.15.6.22.9.14.53.26,1.05.37,1.58.1.37.17.74.25,1.12.16.74.31,1.49.44,2.22.17.92.34,1.85.48,2.79.13.78.24,1.57.34,2.36.04.26.08.53.11.79.01.08.02.16.02.24.05.36.1.73.13,1.1.01.09.02.17.03.26.05.48.1.97.14,1.44.12,1.29.21,2.58.27,3.87.04.81.08,1.64.1,2.46.01.36.02.72.02,1.08.01.47.01.92.01,1.39Z"/>
  <path class="cls-5" d="M302.31,42.04l22.47,22.47h50.75c-3.56-7.84-8.21-15.36-14.21-22.47h-59.01Z"/>
  <path class="cls-5" d="M199.05,140.18c2.71,6.82,7.41,15.47,12.94,22.47h63.72s-22.47-22.47-22.47-22.47h-54.19Z"/>
  <polygon class="cls-5" points="253.24 91.11 275.71 113.58 324.78 113.58 301.86 91.11 253.24 91.11"/>
  <g>
    <g>
      <path class="cls-1" d="M27.62,184.5c-13.54,0-20.12-5.46-20.12-16.68v-13.11h15.88v14.73c0,2.93,1.38,4.35,4.23,4.35,3.01,0,4.24-1.57,4.24-5.43v-6.68c0-1.55-.33-5.47-3.44-8.38l-13.46-12.51c-5.01-4.55-6.79-8.43-6.79-14.82v-7.55c0-11.61,5.86-16.35,20.21-16.35,13.54,0,20.12,5.45,20.12,16.67v10.53h-15.88v-12.14c0-2.93-1.38-4.36-4.23-4.36s-4.24,1.48-4.24,4.79v5.28c0,4.32.55,5.69,3.25,8.15l14.31,13.05c4.44,4.02,6.42,8.86,6.42,15.69v9.49c0,10.56-6.32,15.27-20.5,15.27Z"/>
      <path class="cls-4" d="M28.38,102.58c11.56,0,19.62,3.88,19.62,16.17v10.03h-14.88v-11.64c0-3.24-1.61-4.86-4.73-4.86s-4.74,1.62-4.74,5.29v5.28c0,4.42.57,5.93,3.42,8.52l14.31,13.05c4.17,3.78,6.25,8.41,6.25,15.32v9.49c0,10.89-7.11,14.77-20,14.77-11.56,0-19.62-3.88-19.62-16.18v-12.61h14.88v14.23c0,3.24,1.61,4.85,4.73,4.85s4.74-1.61,4.74-5.93v-6.68c0-2.81-.95-6.26-3.6-8.74l-13.46-12.51c-4.74-4.31-6.63-7.98-6.63-14.45v-7.55c0-11.97,6.53-15.85,19.71-15.85M28.38,101.58c-14.52,0-20.71,5.04-20.71,16.85v7.55c0,6.55,1.82,10.52,6.96,15.19l13.45,12.5c2.96,2.77,3.28,6.52,3.28,8.01v6.68c0,4.11-1.43,4.93-3.74,4.93-2.58,0-3.73-1.19-3.73-3.85v-15.23H7v13.61c0,11.56,6.74,17.18,20.62,17.18,9.02,0,21-1.63,21-15.77v-9.49c0-6.98-2.03-11.94-6.58-16.06l-14.31-13.05c-2.6-2.37-3.09-3.6-3.09-7.78v-5.28c0-3.05,1.08-4.29,3.74-4.29s3.73,1.19,3.73,3.86v12.64h16.88v-11.03c0-11.55-6.74-17.17-20.62-17.17h0Z"/>
    </g>
    <g>
      <polygon class="cls-1" points="64.5 184.5 64.5 112.83 51.08 112.83 51.08 102.01 95.47 102.01 95.47 112.83 82.15 112.83 82.15 184.5 64.5 184.5"/>
      <path class="cls-4" d="M94.97,102.51v9.81h-13.32v71.68h-16.65v-71.68h-13.42v-9.81h43.39M95.97,101.51h-45.39v11.81h13.42v71.68h18.65v-71.68h13.32v-11.81h0Z"/>
    </g>
    <g>
      <polygon class="cls-1" points="98.39 184.5 98.39 102.01 136.12 102.01 136.12 113.48 116.04 113.48 116.04 134.11 135.53 134.11 135.53 145.25 116.04 145.25 116.04 172.94 136.21 172.94 136.21 184.5 98.39 184.5"/>
      <path class="cls-4" d="M135.62,102.51v10.46h-20.08v21.64h19.49v10.14h-19.49v28.69h20.18v10.57h-36.83v-81.49h36.73M136.62,101.51h-38.73v83.49h38.83v-12.57h-20.18v-26.69h19.49v-12.14h-19.49v-19.64h20.08v-12.46h0Z"/>
    </g>
    <g>
      <path class="cls-1" d="M140.9,184.5v-65.85c0-10.99,7.45-16.57,22.14-16.57s21.46,5.61,21.46,16.68v19.2c0,11.18-7.81,18.4-19.89,18.4-1.81,0-3.82-.19-5.96-.55v28.7h-17.75ZM161.67,145.33c2.66,0,5.77-1.65,5.77-6.29v-21.89c0-2.93-1.44-4.35-4.4-4.35s-4.4,1.42-4.4,4.35v28.19h3.03Z"/>
      <path class="cls-4" d="M163.04,102.58c11.95,0,20.96,3.88,20.96,16.18v19.2c0,10.35-6.86,17.9-19.39,17.9-1.96,0-4.11-.22-6.46-.65v28.79h-16.75v-65.35c0-12.19,9.4-16.07,21.65-16.07M158.14,145.83h3.53c3.33,0,6.27-2.26,6.27-6.79v-21.89c0-3.24-1.67-4.85-4.9-4.85s-4.9,1.62-4.9,4.85v28.69M163.04,101.58c-15.03,0-22.65,5.74-22.65,17.07v66.35h18.75v-28.61c1.95.31,3.79.46,5.46.46,12.39,0,20.39-7.42,20.39-18.9v-19.2c0-11.4-7.39-17.18-21.96-17.18h0ZM159.14,144.83v-27.69c0-2.66,1.2-3.85,3.9-3.85s3.9,1.19,3.9,3.85v21.89c0,4.28-2.84,5.79-5.27,5.79h-2.53Z"/>
    </g>
  </g>
  <g>
    <g>
      <polygon class="cls-5" points="29.86 91.43 29.86 36.48 19.57 36.48 19.57 26.3 51.11 26.3 51.11 36.48 40.75 36.48 40.75 91.43 29.86 91.43"/>
      <path class="cls-4" d="M50.61,26.8v9.18h-10.36v54.94h-9.89v-54.94h-10.29v-9.18h30.54M51.61,25.8H19.07v11.18h10.29v54.94h11.89v-54.94h10.36v-11.18h0Z"/>
    </g>
    <g>
      <path class="cls-5" d="M65.57,92.19c-13.85,0-15.01-9.49-15.01-18.38v-16.28c0-6.56,1.94-17.56,14.96-17.56,9.66,0,14.56,5.88,14.56,17.48v11.76h-18.88v6.8c0,4.67,1.32,6.85,4.14,6.85,3.26,0,3.93-2.64,3.93-6.6v-.74h10.64v.73c0,13.18-7.79,15.94-14.33,15.94ZM69.61,60.47v-4.59c0-4.73-1.15-6.58-4.11-6.58-1.81,0-4.23.68-4.23,6.59v4.58h8.33Z"/>
      <path class="cls-4" d="M65.51,40.47c10.61,0,14.06,7.15,14.06,16.98v11.26h-18.88v7.3c0,3.84.89,7.35,4.64,7.35,3.94,0,4.43-3.52,4.43-7.1v-.24h9.64v.23c0,5.21-1.11,15.44-13.83,15.44s-14.51-7.84-14.51-17.88v-16.28c0-6.8,2.14-17.06,14.46-17.06M60.78,60.97h9.33v-5.09c0-4.6-1.06-7.08-4.61-7.08-3.19,0-4.73,2.26-4.73,7.09v5.08M65.51,39.47c-9.82,0-15.46,6.58-15.46,18.06v16.28c0,9.14,1.2,18.88,15.51,18.88,6.77,0,14.83-2.85,14.83-16.44v-1.23h-11.64v1.24c0,4.45-.93,6.1-3.43,6.1-1.56,0-3.64-.66-3.64-6.35v-6.3h18.88v-12.26c0-11.93-5.07-17.98-15.06-17.98h0ZM61.78,59.97v-4.08c0-5.4,1.99-6.09,3.73-6.09,2.28,0,3.61.99,3.61,6.08v4.09h-7.33Z"/>
    </g>
    <g>
      <path class="cls-5" d="M97.26,92.19c-8.1,0-10.98-7.71-10.98-14.92v-.86c0-10.47,6.12-16,17.7-16h.64v-5.84c0-4.33-.67-5.58-2.98-5.58s-3.11,1.41-3.11,4.87v1.31h-10.72v-1.14c0-9.33,4.77-14.06,14.18-14.06s13.45,4.52,13.45,13.82v26.96c0,2.44,0,8.15.19,10.13l.05.55h-9.99l-.09-.39c-.12-.56-.3-1.53-.44-2.37-1.77,2.37-4.37,3.53-7.9,3.53ZM103.66,68.9c-4.96,0-6.98,2.14-6.98,7.4v.78c0,2.51.67,5.5,3.86,5.5,2.64,0,4.27-1.42,4.27-8.49v-5.19h-1.15Z"/>
      <path class="cls-4" d="M102,40.47c9.59,0,12.95,5.29,12.95,13.32v26.96c0,3.13.01,8.28.19,10.17h-9.03c-.2-.93-.55-2.94-.64-3.64-1.69,3.04-4.38,4.41-8.2,4.41-7.47,0-10.48-6.92-10.48-14.42v-.86c0-12.24,8.25-15.5,17.2-15.5h1.14v-6.34c0-3.89-.46-6.08-3.48-6.08s-3.61,2.28-3.61,5.37v.81h-9.72v-.64c0-7.19,2.76-13.56,13.68-13.56M100.53,83.08c3.31,0,4.77-2.29,4.77-8.99v-5.69h-1.65c-4.51,0-7.48,1.71-7.48,7.9v.78c0,3.5,1.27,6,4.36,6M102,39.47c-9.74,0-14.68,4.9-14.68,14.56v1.64h11.72v-1.81c0-3.64,1-4.37,2.61-4.37,1.83,0,2.48.77,2.48,5.08v5.34h-.14c-11.91,0-18.2,5.7-18.2,16.5v.86c0,9.51,4.4,15.42,11.48,15.42,3.27,0,5.77-.95,7.6-2.88.09.51.19.99.26,1.33l.17.79h10.94l-.1-1.1c-.19-1.95-.19-7.65-.19-10.08v-26.96c0-9.5-4.69-14.32-13.95-14.32h0ZM100.53,82.08c-2.23,0-3.36-1.68-3.36-5v-.78c0-5.73,2.59-6.9,6.48-6.9h.65v4.69c0,7.37-1.86,7.99-3.77,7.99h0Z"/>
    </g>
    <g>
      <path class="cls-5" d="M161.31,91.43v-36.72c0-3.46-.93-4.87-3.2-4.87-2.81,0-3.8,1.86-3.8,7.1v34.49h-10.97v-36.48c0-4.72-1.52-5.11-3.22-5.11-2.83,0-3.78,1.76-3.78,6.96v34.63h-10.89v-35.78c0-9.82,0-12.15-.1-14.38l-.02-.52h10.38l.08.41c.19,1.02.25,1.87.29,2.82,1.9-2.62,4.74-4,8.3-4,3.96,0,6.67,1.61,8.08,4.79,1.69-2.38,4.33-4.79,9.43-4.79,6.84,0,10.31,4.35,10.31,12.93v38.52h-10.89Z"/>
      <path class="cls-4" d="M161.89,40.47c5.4,0,9.81,2.72,9.81,12.43v38.02h-9.89v-36.22c0-3.46-.91-5.37-3.7-5.37-3.48,0-4.3,2.69-4.3,7.6v33.99h-9.97v-35.98c0-4.53-1.34-5.61-3.72-5.61-3.53,0-4.28,2.72-4.28,7.46v34.13h-9.89v-35.28c0-9.89,0-12.16-.1-14.4h9.44c.28,1.51.28,2.67.36,4.38,1.74-3.35,4.74-5.14,8.73-5.14s6.75,1.77,7.96,5.36c1.75-2.76,4.33-5.36,9.55-5.36M161.89,39.47c-4.86,0-7.62,2.18-9.34,4.34-1.58-2.85-4.37-4.34-8.16-4.34-3.25,0-5.93,1.1-7.89,3.2-.05-.52-.11-1.04-.22-1.61l-.15-.82h-11.32l.04,1.04c.09,2.22.09,4.55.09,14.36v36.28h11.89v-35.13c0-5.46,1.1-6.46,3.28-6.46,1.28,0,2.72,0,2.72,4.61v36.98h11.97v-34.99c0-5.55,1.16-6.6,3.3-6.6,1.36,0,2.7.34,2.7,4.37v37.22h11.89v-39.02c0-8.91-3.64-13.43-10.81-13.43h0Z"/>
    </g>
  </g>
</svg>