<?xml version="1.0" encoding="UTF-8"?>
<svg id="Steps" xmlns="http://www.w3.org/2000/svg" xmlns:xlink="http://www.w3.org/1999/xlink" viewBox="0 0 384 256">
  <defs>
    <style>
      .cls-1 {
        fill: url(#linear-gradient);
      }

      .cls-1, .cls-2, .cls-3 {
        stroke-width: 0px;
      }

      .cls-4 {
        fill: #7274a2;
        stroke: #4f476d;
      }

      .cls-4, .cls-5, .cls-6 {
        stroke-miterlimit: 10;
      }

      .cls-5 {
        fill: #231630;
        stroke: #231630;
        stroke-width: 3px;
      }

      .cls-2 {
        fill: #4f476d;
      }

      .cls-6 {
        stroke: #50486e;
      }

      .cls-6, .cls-3 {
        fill: #8591c9;
      }
    </style>
    <linearGradient id="linear-gradient" x1="210.34" y1="45.94" x2="309.93" y2="191.71" gradientUnits="userSpaceOnUse">
      <stop offset="0" stop-color="#8591c9"/>
      <stop offset=".55" stop-color="#4e466d"/>
      <stop offset=".97" stop-color="#2c2c54"/>
    </linearGradient>
  </defs>
  <circle class="cls-5" cx="268.02" cy="130.37" r="107.98"/>
  <path class="cls-6" d="M78.28,133.16h-5.45l1.07-5.48h16.31l-1.07,5.48h-5.48l-6.48,33.64h-5.37l6.48-33.64Z"/>
  <path class="cls-6" d="M90.49,153.23c-.03.15-.88,4.56-.92,4.76-.48,2.4-.36,4.41,1.62,4.41s2.41-2.1,2.73-3.81l.16-.86h5.28l-.12.63c-.84,4.53-2.26,8.92-8.54,8.92-6.99,0-7.17-5.82-6.16-10.96l2.03-10.48c.9-4.72,2.41-9.76,8.77-9.76,6.81,0,7.36,5.12,6.33,10.42-.03.16-1.27,6.56-1.31,6.75h-9.86ZM96.06,148.52c.03-.14.74-3.87.76-4.01.36-2.03.19-3.84-1.75-3.84-1.75,0-2.46,1.5-2.9,3.8l-.8,4.05h4.68Z"/>
  <path class="cls-6" d="M117.85,159.31c-.45,2.41-1.25,6.48-1.36,7.48h-5.23c.06-.58.17-1.53.33-2.46-1.29,2-2.64,2.93-4.88,2.93-4.32,0-4.95-4.54-4.05-9.2,1.4-7.05,4.52-8.89,10.96-9.96.37-.06.69-.12,1.06-.18l.73-3.68c.42-2.14.26-3.58-1.4-3.58s-2.02,1.54-2.49,3.66l-.2.93h-5.32l.1-.5c.74-3.78,1.67-8.74,8.32-8.74,5.52,0,7.25,3.2,6.31,8.12l-2.9,15.18ZM113.89,152.54c-.28.06-.56.12-.84.18-2.84.67-4.25,1.67-4.98,5.06-.42,2.05-.47,4.31,1.46,4.31s2.89-2.09,3.7-6.22l.66-3.32Z"/>
  <path class="cls-6" d="M125.6,145.27c1.19-6.03,1.37-7.42,1.64-8.79h5.26c-.06.51-.18,1.46-.34,2.28,1.25-1.88,3-2.75,4.93-2.75,2.24,0,3.42,1.26,3.77,2.9,1.29-1.73,3.01-2.9,5.57-2.9,3.26,0,5.36,2.32,4.35,7.62l-4.46,23.16h-5.42l4.35-22.52c.39-2.16.16-3.34-1.37-3.34-1.84,0-2.58,1.69-3.17,4.66l-4.08,21.2h-5.47l4.3-22.37c.57-2.83-.05-3.49-1.29-3.49-1.89,0-2.65,1.73-3.21,4.57l-4.12,21.29h-5.37l4.14-21.52Z"/>
  <path class="cls-4" d="M42.94,227.13c0,9.49-6.4,12.87-18,12.87-10.41,0-17.66-3.38-17.66-14.09v-10.99h13.4v12.4c0,2.82,1.45,4.23,4.27,4.23s4.27-1.41,4.27-5.17v-5.82c0-2.44-.85-5.45-3.24-7.61l-12.12-10.9c-4.27-3.76-5.97-6.95-5.97-12.59v-6.58c0-10.43,5.89-13.81,17.75-13.81,10.41,0,17.66,3.38,17.66,14.09v8.74h-13.4v-10.15c0-2.82-1.45-4.23-4.27-4.23s-4.27,1.41-4.27,4.6v4.6c0,3.85.51,5.17,3.07,7.42l12.88,11.37c3.75,3.29,5.63,7.33,5.63,13.34v8.27Z"/>
  <path class="cls-4" d="M56.94,237.93v-58.34h-11.69v-8.55h37.8v8.55h-11.6v58.34h-14.5Z"/>
  <path class="cls-4" d="M86.45,237.93v-66.89h31.99v9.11h-17.49v16.82h16.98v8.83h-16.98v22.92h17.58v9.21h-32.08Z"/>
  <path class="cls-4" d="M123.48,237.93v-54.86c0-10.62,8.19-14,18.86-14s18.26,3.38,18.26,14.09v16.72c0,9.02-5.97,15.59-16.89,15.59-1.71,0-3.58-.19-5.63-.56v23.02h-14.59ZM146.6,181.76c0-2.82-1.45-4.23-4.27-4.23s-4.27,1.41-4.27,4.23v24.99h3.07c2.9,0,5.46-1.97,5.46-5.92v-19.07Z"/>
  <path class="cls-1" d="M366.47,85.95h-57.08v55.19h-55.19v55.18h-71.67c-2.79-3.61-5.37-7.41-7.69-11.36-2.61-4.44-4.92-9.09-6.87-13.92-.88-2.15-1.68-4.32-2.42-6.53-.45-1.34-.87-2.7-1.26-4.06-.16-.51-.29-1.02-.43-1.54-.62-2.23-1.16-4.49-1.63-6.77-.18-.88-.35-1.77-.5-2.65-.04-.2-.07-.39-.11-.6-.15-.84-.28-1.7-.4-2.55-.51-3.43-.87-6.9-1.04-10.43-.02-.42-.05-.84-.06-1.27-.06-1.42-.09-2.84-.09-4.28,0-59.65,48.35-107.98,107.98-107.98,1.24,0,2.48.02,3.71.07.62.01,1.24.04,1.87.07.79.04,1.6.09,2.39.15.39.02.79.05,1.18.1.61.04,1.22.1,1.83.16.09.01.18.02.27.04.77.07,1.54.16,2.29.26.22.02.43.05.65.09.71.09,1.42.18,2.12.29.12.02.23.04.35.06.83.12,1.67.26,2.49.42.7.12,1.38.24,2.06.39.39.07.78.15,1.17.23.45.1.89.2,1.33.29.7.16,1.39.32,2.07.49.67.16,1.34.33,2,.51.81.21,1.61.44,2.4.67.81.23,1.6.48,2.39.72,2.37.76,4.71,1.59,7,2.49,1.63.65,3.26,1.33,4.86,2.05.09.04.16.07.24.11.54.24,1.09.5,1.62.76.17.07.33.16.5.24.35.17.7.34,1.05.51.48.23.95.46,1.42.71.74.38,1.48.77,2.2,1.16.59.32,1.17.65,1.74.98.48.27.95.54,1.41.82.6.35,1.2.71,1.79,1.07.63.39,1.27.78,1.88,1.18.68.44,1.37.9,2.05,1.37.77.5,1.52,1.02,2.27,1.56.71.5,1.4,1.01,2.1,1.52.7.52,1.38,1.06,2.06,1.6.24.18.48.38.72.57.68.55,1.38,1.11,2.05,1.68h-51.67c-.28-.06-.57-.12-.85-.18-.49-.11-.99-.21-1.49-.29-1.71-.32-3.44-.59-5.2-.79-.46-.06-.93-.12-1.4-.16-.23-.04-.45-.06-.68-.07-.49-.05-.99-.1-1.49-.13-.29-.02-.6-.05-.89-.06-.46-.04-.94-.06-1.4-.09-.68-.04-1.35-.07-2.02-.09-.82-.02-1.64-.04-2.45-.04-46.66,0-84.5,37.83-84.5,84.5,0,1.52.04,3.03.12,4.53.04.76.09,1.5.15,2.25.07.95.17,1.89.28,2.83.05.54.12,1.07.2,1.6.09.73.2,1.45.32,2.17,0,.02,0,.05.01.07.1.71.23,1.42.37,2.12.12.72.27,1.44.43,2.15.15.72.3,1.43.49,2.13.16.71.34,1.42.54,2.11.18.71.38,1.4.59,2.09.19.7.41,1.39.65,2.07.88,2.74,1.9,5.42,3.06,8.03h.01c.98,2.23,2.05,4.4,3.23,6.53h34.97v-55.18h55.19v-55.19h66.38c6.43,7.6,11.83,16.09,15.98,25.28Z"/>
  <path class="cls-2" d="M376,130.37c0,59.63-48.35,107.98-107.98,107.98-.93,0-1.85-.01-2.78-.04-.93-.02-1.85-.06-2.77-.11-.55-.02-1.1-.05-1.63-.1-.55-.02-1.1-.07-1.65-.11-.46-.04-.93-.09-1.39-.13-.51-.04-1.01-.09-1.51-.15-.65-.06-1.28-.13-1.92-.22-.3-.04-.6-.07-.9-.12-.05-.01-.11-.01-.17-.02-.05-.01-.1-.01-.15-.02-.66-.09-1.33-.18-1.99-.29-.52-.07-1.06-.16-1.59-.26-.39-.06-.77-.13-1.16-.21-.49-.09-.99-.18-1.49-.28-.32-.06-.62-.12-.94-.2-.7-.13-1.38-.29-2.07-.45-.51-.11-1.04-.23-1.56-.37-.34-.09-.7-.17-1.04-.26-.15-.04-.29-.07-.44-.11-.12-.04-.24-.07-.37-.11-.27-.06-.52-.13-.78-.19-.27-.07-.52-.15-.78-.22-.2-.06-.39-.11-.57-.16-.19-.06-.39-.11-.57-.17-.39-.11-.77-.22-1.15-.34-.39-.12-.78-.23-1.17-.35-.12-.04-.24-.07-.37-.12-.39-.12-.77-.24-1.16-.38-.11-.04-.21-.07-.32-.11-.27-.09-.54-.18-.79-.27-.27-.09-.54-.18-.79-.28-.09-.02-.18-.05-.27-.09-.52-.18-1.05-.38-1.56-.57-.52-.2-1.04-.39-1.55-.6-.01-.01-.04-.01-.05-.02l-.48-.18c-.55-.22-1.11-.45-1.66-.68-.04-.01-.06-.02-.1-.04-.05-.02-.11-.04-.16-.06-.09-.04-.18-.07-.28-.11-.21-.09-.4-.18-.61-.27-.61-.27-1.23-.54-1.83-.81h-.01c-.67-.3-1.34-.62-2.01-.94-.66-.32-1.33-.65-1.99-.98s-1.32-.67-1.98-1.02c-.66-.34-1.31-.7-1.95-1.06-.29-.15-.59-.32-.88-.5-.3-.17-.6-.34-.89-.51-.21-.11-.42-.23-.63-.37-.3-.18-.62-.37-.93-.55-.27-.17-.54-.33-.79-.5-.1-.05-.18-.1-.28-.16-.37-.22-.73-.45-1.1-.7-.27-.16-.54-.33-.81-.51-.26-.17-.52-.34-.78-.52-.3-.2-.61-.4-.9-.6-.3-.21-.6-.41-.9-.62-.04-.01-.07-.04-.11-.07-.15-.09-.28-.18-.43-.29-.15-.11-.28-.21-.43-.3-1.68-1.18-3.32-2.42-4.93-3.7-.23-.18-.45-.37-.68-.56-.06-.05-.12-.1-.2-.16-.2-.16-.4-.32-.6-.49-.29-.24-.6-.49-.89-.73-.27-.22-.54-.45-.79-.68-.09-.07-.18-.16-.27-.23-.17-.16-.34-.3-.51-.46-.94-.8-1.85-1.63-2.74-2.49h43.09c.83.34,1.67.65,2.51.94.89.32,1.78.62,2.67.9.83.27,1.67.52,2.51.76.06.02.13.04.21.06.59.17,1.18.33,1.77.48.38.1.74.18,1.11.28.41.1.83.2,1.26.29,1.02.23,2.05.45,3.09.63.38.07.76.15,1.13.21.13.03.27.05.4.07.43.07.87.15,1.29.21.67.11,1.35.19,2.03.28.2.02.38.05.57.07.55.07,1.09.13,1.63.18.54.06,1.09.11,1.63.15.37.04.73.06,1.1.09.51.04,1.04.07,1.56.1.6.04,1.21.05,1.82.07.84.03,1.68.04,2.53.04,46.66,0,84.5-37.83,84.5-84.5,0-.83-.01-1.65-.04-2.47-.02-.71-.05-1.43-.09-2.13-.02-.43-.05-.85-.09-1.28-.01-.34-.04-.67-.07-1-.04-.49-.07-.99-.13-1.48-.06-.67-.13-1.34-.22-2-.07-.63-.16-1.27-.26-1.89-.27-1.92-.61-3.79-1.01-5.66-.12-.59-.26-1.17-.39-1.74-.04-.12-.06-.24-.1-.38-.16-.67-.33-1.33-.51-1.98-.01-.1-.05-.2-.09-.3-.18-.73-.4-1.46-.62-2.18-.23-.77-.48-1.54-.73-2.31-.24-.76-.51-1.5-.78-2.26t-.01-.02c-.28-.74-.56-1.5-.87-2.24-.29-.74-.6-1.49-.93-2.22-.32-.73-.63-1.46-.99-2.18-.33-.73-.67-1.45-1.04-2.16h-.01c-1.11-2.23-2.33-4.42-3.65-6.53h26.57c.96,2.15,1.87,4.32,2.68,6.53.59,1.56,1.13,3.15,1.65,4.75.22.66.43,1.32.62,1.99.21.66.39,1.31.57,1.96.24.88.49,1.76.71,2.63.09.33.17.67.24,1.01.16.6.29,1.18.42,1.78.11.42.19.83.28,1.26.18.83.35,1.67.5,2.5.2,1.04.38,2.09.54,3.14.15.88.27,1.77.38,2.66.05.29.09.6.12.89.01.09.02.18.02.27.06.4.11.82.15,1.23.01.1.02.2.04.29.06.54.11,1.09.16,1.62.13,1.45.23,2.9.3,4.36.05.91.09,1.84.11,2.77.01.4.02.81.02,1.22.01.52.01,1.04.01,1.56Z"/>
  <path class="cls-3" d="M284.11,60.67l25.28,25.28h57.08c-4.01-8.82-9.24-17.28-15.98-25.28h-66.38Z"/>
  <path class="cls-3" d="M167.97,171.06c3.05,7.67,8.34,17.41,14.55,25.28h71.67s-25.28-25.28-25.28-25.28h-60.95Z"/>
  <polygon class="cls-3" points="228.92 115.87 254.2 141.14 309.39 141.14 283.61 115.87 228.92 115.87"/>
</svg>