<?xml version="1.0" encoding="UTF-8"?>
<svg xmlns="http://www.w3.org/2000/svg" viewBox="0 0 392 208">
  <defs>
    <style>
      .cls-1, .cls-2, .cls-3 {
        stroke-width: 0px;
      }

      .cls-2 {
        fill: #231f20;
      }

      .cls-3 {
        fill: #050606;
      }
    </style>
  </defs>
  <g id="Layer_3" data-name="Layer 3">
    <g>
      <path class="cls-2" d="M33.12,128.78v-11.64c0-3.24-1.61-4.86-4.73-4.86s-4.74,1.62-4.74,5.29v5.28c0,4.42.57,5.93,3.42,8.52l14.31,13.05c4.17,3.78,6.25,8.41,6.25,15.32v9.49c0,10.89-7.11,14.77-20,14.77-11.56,0-19.62-3.88-19.62-16.18v-12.61h14.88v14.23c0,3.24,1.61,4.85,4.73,4.85s4.74-1.61,4.74-5.93v-6.68c0-2.81-.95-6.26-3.6-8.74l-13.46-12.51c-4.74-4.31-6.63-7.98-6.63-14.45v-7.55c0-11.97,6.53-15.85,19.71-15.85,11.57,0,19.62,3.88,19.62,16.17v10.03h-14.88Z"/>
      <path class="cls-2" d="M65,184v-71.68h-13.42v-9.81h43.39v9.81h-13.32v71.68h-16.65Z"/>
      <path class="cls-2" d="M98.89,184v-81.49h36.73v10.46h-20.08v21.64h19.49v10.14h-19.49v28.69h20.18v10.57h-36.83Z"/>
      <path class="cls-2" d="M141.4,184v-65.35c0-12.19,9.4-16.07,21.65-16.07s20.96,3.88,20.96,16.18v19.2c0,10.35-6.86,17.9-19.39,17.9-1.96,0-4.11-.22-6.46-.65v28.79h-16.75ZM167.94,117.14c0-3.24-1.67-4.85-4.9-4.85s-4.9,1.62-4.9,4.85v28.69h3.53c3.33,0,6.27-2.26,6.27-6.79v-21.89Z"/>
    </g>
    <g>
      <path class="cls-2" d="M30.36,35.98h-10.29v-9.18h30.54v9.18h-10.36v54.94h-9.89v-54.94Z"/>
      <path class="cls-2" d="M60.69,68.71v7.3c0,3.84.89,7.35,4.64,7.35,3.94,0,4.43-3.52,4.43-7.1v-.24h9.64v.23c0,5.21-1.11,15.44-13.83,15.44s-14.51-7.84-14.51-17.88v-16.28c0-6.8,2.14-17.06,14.46-17.06,10.61,0,14.06,7.15,14.06,16.98v11.26h-18.88ZM70.11,60.97v-5.09c0-4.6-1.06-7.08-4.61-7.08-3.19,0-4.73,2.26-4.73,7.09v5.08h9.33Z"/>
      <path class="cls-2" d="M114.94,80.75c0,3.13.01,8.28.19,10.17h-9.03c-.2-.93-.55-2.94-.64-3.64-1.69,3.04-4.38,4.41-8.2,4.41-7.47,0-10.48-6.92-10.48-14.42v-.86c0-12.24,8.25-15.5,17.2-15.5h1.14v-6.34c0-3.89-.46-6.08-3.48-6.08s-3.61,2.28-3.61,5.37v.81h-9.72v-.64c0-7.19,2.76-13.56,13.68-13.56,9.59,0,12.95,5.29,12.95,13.32v26.96ZM105.3,68.4h-1.65c-4.51,0-7.48,1.71-7.48,7.9v.78c0,3.5,1.27,6,4.36,6,3.31,0,4.77-2.29,4.77-8.99v-5.69Z"/>
      <path class="cls-2" d="M125.95,55.64c0-9.89,0-12.16-.1-14.4h9.44c.28,1.51.28,2.67.36,4.38,1.74-3.35,4.74-5.14,8.73-5.14s6.75,1.77,7.96,5.36c1.75-2.76,4.33-5.36,9.55-5.36s9.81,2.72,9.81,12.43v38.02h-9.89v-36.22c0-3.46-.91-5.37-3.7-5.37-3.48,0-4.3,2.69-4.3,7.6v33.99h-9.97v-35.98c0-4.53-1.34-5.61-3.72-5.61-3.53,0-4.28,2.72-4.28,7.46v34.13h-9.89v-35.28Z"/>
    </g>
  </g>
  <g id="Layer_5" data-name="Layer 5">
    <g>
      <g>
        <polygon class="cls-1" points="324.72 64.47 324.72 113.59 301.78 91.09 302.23 91.09 302.23 41.98 324.72 64.47"/>
        <path class="cls-1" d="M349.8,30.5h-45.98c-.25-.05-.51-.11-.76-.16-.43-.1-.88-.18-1.32-.26-1.52-.28-3.06-.52-4.62-.71-.41-.05-.83-.11-1.25-.14-.21-.03-.4-.05-.61-.06-.43-.04-.88-.09-1.32-.12-.26-.02-.53-.04-.79-.05-.41-.03-.84-.05-1.25-.08-.61-.03-1.2-.06-1.8-.08-.73-.02-1.45-.03-2.18-.03-41.53,0-75.19,33.67-75.19,75.19,0,1.36.03,2.69.11,4.03.03.67.08,1.34.13,2,.07.85.15,1.68.25,2.52.04.48.11.96.17,1.42.08.65.17,1.29.28,1.93,0,.02,0,.04.01.07.09.63.21,1.26.33,1.89.11.64.24,1.28.38,1.91.13.64.27,1.27.43,1.9.14.63.3,1.26.48,1.88.16.63.34,1.25.52,1.86.17.62.37,1.24.58,1.85.78,2.44,1.69,4.82,2.73,7.14h.01c.87,1.99,1.82,3.92,2.88,5.81h31.12v-49.1l22.5,22.5v49.1h-.01l-22.48-22.48h-54.24c-.78-1.92-1.5-3.85-2.15-5.82-.4-1.19-.77-2.4-1.12-3.62-.14-.46-.26-.91-.38-1.37-.55-1.99-1.03-4-1.45-6.03-.16-.78-.31-1.57-.45-2.36-.03-.17-.07-.35-.1-.53-.13-.75-.25-1.51-.36-2.27-.46-3.05-.77-6.15-.92-9.28-.02-.37-.04-.75-.05-1.13-.05-1.26-.08-2.53-.08-3.81,0-53.08,43.03-96.09,96.09-96.09,1.11,0,2.2.02,3.3.07.55.01,1.11.03,1.66.06.71.03,1.42.08,2.13.13.35.02.71.04,1.05.09.54.03,1.09.09,1.63.14.08.01.16.02.24.03.68.07,1.37.14,2.04.23.2.02.38.04.58.08.63.08,1.26.16,1.89.26.11.02.21.03.31.05.74.11,1.49.23,2.21.37.62.11,1.23.22,1.83.35.35.07.69.13,1.04.21.4.09.79.17,1.18.26.62.14,1.24.28,1.85.43.6.14,1.19.29,1.78.46.72.18,1.43.39,2.14.6.72.21,1.42.42,2.13.64,2.11.67,4.19,1.41,6.23,2.21,1.45.58,2.9,1.18,4.32,1.82.08.03.14.07.22.1.48.22.97.45,1.44.67.15.07.29.14.45.22.31.15.62.3.93.46.42.21.85.41,1.26.63.66.34,1.31.68,1.95,1.03.52.28,1.04.58,1.55.87.42.24.85.48,1.26.73.53.31,1.06.63,1.6.96.56.35,1.13.69,1.67,1.05.61.39,1.22.8,1.82,1.22.68.45,1.36.91,2.02,1.39.63.45,1.25.9,1.87,1.36.62.47,1.23.94,1.83,1.42.22.16.42.34.64.51.61.49,1.23.99,1.82,1.5Z"/>
      </g>
      <path class="cls-1" d="M384,104c0,53.07-43.03,96.09-96.09,96.09-.83,0-1.65-.01-2.48-.03s-1.65-.05-2.46-.1c-.49-.02-.98-.04-1.45-.09-.49-.02-.98-.07-1.47-.1-.41-.03-.83-.08-1.24-.12-.46-.03-.9-.08-1.35-.13-.58-.05-1.14-.12-1.7-.2-.27-.03-.53-.07-.8-.11-.04-.01-.1-.01-.15-.02-.04-.01-.09-.01-.13-.02-.59-.08-1.18-.16-1.77-.26-.47-.06-.94-.14-1.41-.23-.35-.05-.68-.12-1.03-.18-.43-.08-.88-.16-1.32-.25-.28-.05-.55-.11-.84-.17-.62-.12-1.23-.26-1.85-.4-.46-.1-.92-.21-1.39-.33-.3-.08-.62-.15-.92-.23l-.39-.1c-.11-.03-.22-.07-.33-.1-.24-.05-.47-.12-.69-.17-.24-.07-.47-.13-.69-.2-.17-.05-.35-.1-.51-.14-.17-.05-.35-.1-.51-.15-.35-.1-.68-.2-1.02-.3-.35-.11-.69-.21-1.04-.31-.11-.03-.22-.07-.33-.11-.35-.11-.68-.22-1.03-.34-.1-.03-.18-.07-.28-.1-.24-.08-.48-.16-.71-.24-.24-.08-.48-.16-.71-.25-.08-.02-.16-.04-.24-.08-.47-.16-.93-.34-1.39-.51-.47-.17-.92-.35-1.38-.53-.01-.01-.03-.01-.04-.02l-.42-.16c-.49-.2-.99-.4-1.48-.61-.03-.01-.05-.02-.09-.03-.04-.02-.1-.03-.14-.05-.08-.03-.16-.06-.25-.1-.18-.08-.36-.16-.54-.24-.54-.24-1.1-.48-1.63-.72h-.01c-.6-.27-1.19-.55-1.79-.84-.59-.28-1.18-.58-1.77-.87-.59-.29-1.17-.6-1.76-.91-.59-.3-1.16-.62-1.74-.94-.26-.13-.52-.28-.78-.45-.27-.15-.53-.3-.79-.46-.18-.1-.37-.21-.56-.33-.27-.16-.55-.33-.83-.49-.24-.15-.48-.29-.71-.45-.09-.04-.16-.09-.25-.14-.33-.2-.65-.4-.98-.62-.24-.14-.48-.29-.72-.46-.23-.15-.47-.3-.69-.47-.27-.17-.54-.36-.8-.53-.27-.18-.53-.37-.8-.55-.03-.01-.07-.03-.1-.06-.13-.08-.25-.16-.38-.26-.13-.1-.25-.18-.38-.27-1.5-1.05-2.95-2.15-4.39-3.29-.21-.16-.4-.33-.61-.5-.05-.04-.11-.09-.17-.14-.17-.14-.36-.28-.53-.43-.26-.22-.53-.43-.79-.65-.24-.2-.48-.4-.71-.61-.08-.06-.16-.14-.24-.21-.15-.14-.3-.27-.46-.41-.84-.72-1.65-1.45-2.44-2.21h38.35c.74.3,1.49.58,2.24.84.79.28,1.59.55,2.38.8.74.24,1.49.47,2.24.67.05.02.12.03.18.05.52.15,1.05.29,1.57.42.34.09.66.16.99.25.37.09.74.17,1.12.26.91.21,1.82.4,2.75.56.34.07.67.13,1.01.18.12.02.24.04.36.07.38.07.77.13,1.15.18.6.1,1.21.17,1.8.25.17.02.34.04.51.07.49.07.97.12,1.45.16.48.05.97.1,1.45.13.33.03.65.05.98.08.46.03.92.07,1.39.09.53.03,1.07.04,1.62.07.75.02,1.5.03,2.25.03,41.53,0,75.19-33.67,75.19-75.19,0-.74-.01-1.47-.03-2.19-.02-.63-.04-1.27-.08-1.9-.02-.38-.04-.76-.08-1.14-.01-.3-.03-.6-.07-.89-.03-.43-.07-.88-.12-1.31-.05-.6-.12-1.19-.2-1.78-.07-.56-.14-1.13-.23-1.68-.24-1.7-.54-3.38-.9-5.04-.11-.52-.23-1.04-.35-1.55-.03-.11-.05-.22-.09-.34-.14-.6-.29-1.18-.46-1.76-.01-.09-.04-.17-.08-.27-.16-.65-.36-1.3-.55-1.94-.21-.68-.42-1.37-.65-2.05-.22-.67-.46-1.34-.69-2.01t-.01-.02c-.25-.66-.5-1.34-.77-2-.26-.66-.53-1.32-.83-1.98-.28-.65-.56-1.3-.88-1.94-.29-.65-.6-1.29-.92-1.92h-.01c-.99-1.99-2.07-3.93-3.25-5.81h23.65c.86,1.91,1.66,3.84,2.39,5.81.52,1.39,1.01,2.8,1.47,4.22.2.59.38,1.17.55,1.77.18.59.35,1.16.51,1.75.22.78.43,1.56.63,2.34.08.29.15.6.22.9.14.53.26,1.05.37,1.59.1.37.17.74.25,1.12.16.74.31,1.49.45,2.23.17.92.34,1.86.48,2.79.13.78.24,1.57.34,2.37.04.26.08.53.11.79.01.08.02.16.02.24.05.36.1.73.13,1.1.01.09.02.17.03.26.05.48.1.97.14,1.44.12,1.29.21,2.58.27,3.88.04.81.08,1.64.1,2.46.01.36.02.72.02,1.09.01.47.01.92.01,1.39Z"/>
      <path class="cls-3" d="M301.34,92.18l20.73,20.32h-46.01l-20.32-20.32h45.61M301.78,91.09h-48.67l22.5,22.5h49.12l-22.94-22.5h0Z"/>
      <path class="cls-1" d="M304.85,43.06h55.93c5.57,6.89,9.95,13.71,13.05,20.32h-48.66l-20.32-20.32M302.23,41.98l22.5,22.5h50.8c-3.45-7.83-8.41-15.37-14.22-22.5h-59.07Z"/>
      <path class="cls-1" d="M252.66,141.29l20.32,20.32h-60.61c-5.59-7.77-9.5-14.44-11.91-20.32h52.2M253.11,140.21h-54.24c2.52,6.71,7.01,14.28,12.95,22.5h63.78l-22.5-22.5h0Z"/>
    </g>
  </g>
</svg>