<?xml version="1.0" encoding="UTF-8"?>
<svg id="Steps" xmlns="http://www.w3.org/2000/svg" viewBox="0 0 392 248">
  <defs>
    <style>
      .cls-1 {
        stroke-width: 0px;
      }
    </style>
  </defs>
  <g>
    <path class="cls-1" d="M150.13,166.85c-2.68,0-4.06,1.34-4.06,4.03v23.8h2.93c2.76,0,5.2-1.88,5.2-5.64v-18.16c0-2.68-1.38-4.03-4.06-4.03Z"/>
    <path class="cls-1" d="M106.78,134.77c.35-1.94.18-3.66-1.66-3.66-1.66,0-2.35,1.43-2.76,3.62l-.76,3.86h4.46c.02-.13.7-3.69.73-3.82Z"/>
    <path class="cls-1" d="M117.5,147.41c-.4,1.96-.45,4.1,1.39,4.1s2.76-1.99,3.52-5.93l.63-3.16c-.27.06-.53.11-.8.17-2.7.64-4.05,1.59-4.74,4.82Z"/>
    <path class="cls-1" d="M0,0v248h392V0H0ZM55.79,180.54h-12.76v-9.67c0-2.68-1.38-4.03-4.07-4.03s-4.06,1.35-4.06,4.39v4.39c0,3.67.49,4.92,2.93,7.07l12.27,10.82c3.57,3.14,5.36,6.98,5.36,12.71v7.87c0,9.04-6.09,12.26-17.15,12.26-9.91,0-16.82-3.22-16.82-13.43v-10.47h12.76v11.82c0,2.68,1.38,4.03,4.06,4.03s4.07-1.35,4.07-4.92v-5.55c0-2.32-.82-5.19-3.09-7.25l-11.54-10.38c-4.06-3.58-5.68-6.62-5.68-11.99v-6.26c0-9.94,5.61-13.15,16.89-13.15,9.92,0,16.83,3.21,16.83,13.42v8.32ZM93.66,168.82h-11.05v55.57h-13.82v-55.57h-11.13v-8.14h36v8.14ZM88.06,156h-5.12l6.17-32.04h-5.18l1.02-5.22h15.54l-1.03,5.22h-5.23l-6.17,32.04ZM95.08,146.01l1.93-9.98c.86-4.5,2.3-9.31,8.35-9.31,6.49,0,7.01,4.88,6.03,9.93-.03.15-1.21,6.25-1.25,6.42h-9.39c-.03.15-.84,4.35-.87,4.53-.46,2.29-.35,4.21,1.54,4.21s2.29-2,2.6-3.64l.15-.83h5.03l-.12.6c-.81,4.31-2.15,8.49-8.13,8.49-6.67,0-6.84-5.54-5.87-10.43ZM127.46,224.39h-30.55v-63.71h30.48v8.68h-16.66v16.01h16.17v8.42h-16.17v21.83h16.73v8.76ZM129.57,134.42l-2.77,14.46c-.42,2.29-1.19,6.17-1.29,7.12h-4.98c.05-.55.16-1.46.32-2.34-1.23,1.91-2.51,2.79-4.65,2.79-4.11,0-4.72-4.31-3.86-8.76,1.34-6.71,4.3-8.47,10.44-9.49.35-.05.66-.11,1.02-.17l.69-3.5c.4-2.03.24-3.41-1.32-3.41s-1.93,1.47-2.37,3.49l-.19.88h-5.07l.1-.48c.71-3.59,1.59-8.32,7.93-8.32,5.26,0,6.91,3.04,6.02,7.74ZM134.18,135.5c1.13-5.75,1.3-7.07,1.56-8.37h5.01c-.05.49-.17,1.39-.32,2.17,1.19-1.79,2.85-2.62,4.7-2.62,2.13,0,3.25,1.2,3.59,2.77,1.23-1.65,2.86-2.77,5.3-2.77,3.12,0,5.12,2.2,4.14,7.26l-4.25,22.05h-5.16l4.14-21.45c.38-2.06.16-3.18-1.3-3.18-1.75,0-2.46,1.61-3.02,4.44l-3.89,20.19h-5.2l4.09-21.3c.54-2.69-.05-3.33-1.23-3.33-1.8,0-2.53,1.64-3.06,4.36l-3.92,20.27h-5.11l3.93-20.5ZM167.52,188.15c0,8.58-5.68,14.85-16.09,14.85-1.62,0-3.41-.18-5.36-.54v21.93h-13.89v-52.26c0-10.11,7.8-13.32,17.96-13.32s17.38,3.21,17.38,13.42v15.93ZM269.15,224.78c-.89,0-1.77-.01-2.65-.03-.89-.02-1.77-.06-2.64-.11-.53-.02-1.05-.04-1.56-.1-.52-.02-1.05-.06-1.57-.11-.45-.03-.88-.07-1.32-.13-.49-.03-.96-.07-1.44-.14-.61-.05-1.22-.13-1.82-.21-.3-.03-.57-.06-.86-.12-.05-.01-.11-.01-.17-.02-.04-.01-.08-.01-.14-.02-.63-.08-1.26-.17-1.9-.28-.5-.07-1.01-.16-1.5-.24-.37-.06-.73-.13-1.1-.2-.47-.08-.94-.17-1.42-.26-.31-.06-.59-.12-.89-.19-.67-.13-1.31-.28-1.98-.42-.49-.11-.99-.22-1.48-.35-.33-.08-.67-.17-.99-.24-.15-.04-.29-.07-.42-.11-.12-.03-.23-.07-.35-.11-.25-.05-.5-.13-.74-.19-.25-.06-.5-.14-.74-.2-.19-.06-.37-.11-.55-.16-.18-.05-.37-.1-.54-.16-.37-.11-.73-.21-1.09-.33-.37-.12-.74-.21-1.11-.33-.12-.04-.23-.07-.35-.12-.37-.12-.73-.23-1.11-.36-.1-.04-.19-.07-.3-.11-.25-.08-.51-.18-.75-.25-.25-.08-.52-.18-.76-.28-.07-.02-.17-.04-.25-.07-.5-.18-1-.36-1.48-.55-.5-.18-.99-.37-1.47-.56-.01-.02-.04-.02-.05-.03l-.45-.17c-.53-.21-1.06-.43-1.59-.66-.03-.01-.05-.02-.08-.03-.05-.02-.11-.03-.16-.05-.07-.04-.17-.07-.26-.11-.19-.08-.38-.18-.58-.25-.57-.25-1.17-.52-1.74-.77h-.01c-.64-.29-1.28-.59-1.92-.89-.63-.31-1.27-.61-1.9-.93-.63-.31-1.25-.64-1.88-.98-.64-.33-1.25-.66-1.87-1.01-.28-.14-.55-.31-.84-.48-.29-.17-.56-.33-.85-.49-.19-.11-.39-.22-.6-.35-.29-.18-.59-.35-.88-.52-.25-.17-.51-.32-.75-.48-.1-.05-.18-.1-.28-.16-.35-.2-.69-.42-1.04-.66-.25-.15-.52-.32-.77-.49-.24-.17-.5-.33-.74-.5-.29-.19-.58-.39-.86-.57-.29-.2-.57-.39-.86-.59-.03-.01-.07-.03-.11-.07-.14-.07-.26-.17-.4-.28-.15-.11-.28-.2-.41-.29-1.6-1.13-3.16-2.3-4.7-3.53-.22-.17-.42-.34-.65-.53-.06-.04-.12-.1-.19-.15-.18-.15-.38-.31-.56-.47-.29-.23-.57-.47-.85-.7-.25-.21-.52-.42-.76-.65-.07-.07-.17-.16-.25-.22-.16-.15-.32-.3-.49-.45-.89-.76-1.76-1.56-2.62-2.36h41.05c.79.32,1.59.61,2.4.89.85.31,1.7.59,2.54.86.79.25,1.59.5,2.4.72.05.02.13.03.19.06.56.16,1.13.31,1.69.45.36.1.71.18,1.06.28.4.08.79.18,1.2.28.98.22,1.95.42,2.95.6.36.06.72.14,1.08.2.13.02.25.04.38.06.4.07.83.14,1.23.2.64.11,1.29.18,1.93.26.18.02.36.04.54.07.53.06,1.04.13,1.56.17.52.05,1.04.11,1.56.14.35.03.7.06,1.05.08.49.03.99.06,1.48.1.57.03,1.16.04,1.74.06.79.02,1.6.03,2.41.03,44.44,0,80.47-36.03,80.47-80.47,0-.79-.01-1.57-.03-2.35-.02-.67-.04-1.36-.08-2.03-.02-.4-.04-.81-.07-1.22-.01-.32-.04-.64-.07-.95-.03-.47-.06-.93-.13-1.4-.05-.65-.13-1.28-.21-1.91-.06-.6-.15-1.21-.24-1.8-.25-1.82-.57-3.61-.96-5.39-.12-.55-.24-1.11-.37-1.66-.03-.12-.05-.23-.08-.36-.16-.64-.32-1.26-.5-1.88-.01-.1-.04-.19-.07-.3-.18-.69-.38-1.39-.59-2.08-.22-.73-.46-1.46-.7-2.19-.23-.72-.49-1.43-.74-2.15t-.01-.02c-.26-.71-.54-1.43-.83-2.14-.28-.71-.57-1.42-.88-2.11-.31-.7-.6-1.4-.94-2.09-.32-.69-.64-1.38-.99-2.06h-.01c-.88-1.77-2.18-4.26-3.32-6.21h-29.22v52.57h-52.58v52.57h-68.26c-6.04-8.34-10.65-16.06-13.42-22.97,0,0-.08-.21-.22-.55-.06-.18-.15-.37-.22-.56h.01c-.64-1.65-1.81-4.73-2.31-6.23-.43-1.27-.83-2.56-1.2-3.87-.15-.49-.28-.98-.4-1.46-.59-2.13-1.11-4.28-1.56-6.45-.18-.84-.34-1.69-.48-2.51-.04-.19-.07-.38-.11-.57-.14-.81-.26-1.62-.38-2.43-.49-3.26-.83-6.58-1-9.94-.02-.39-.04-.79-.05-1.21-.05-1.35-.08-2.7-.08-4.08,0-56.81,46.05-102.85,102.86-102.85,1.18,0,2.35.02,3.53.07.59.01,1.19.03,1.78.06.75.03,1.52.08,2.28.14.37.03.75.05,1.12.1.58.03,1.17.1,1.74.15.08.01.18.03.26.04.73.06,1.46.15,2.18.24.2.02.4.04.61.07.67.08,1.35.18,2.02.29.12.02.21.03.33.05.79.12,1.6.24,2.37.39.67.12,1.31.23,1.96.37.37.07.74.15,1.12.22.42.1.85.19,1.26.29.67.15,1.32.3,1.97.46.65.16,1.28.32,1.91.5.77.19,1.54.41,2.29.64.77.22,1.53.46,2.28.69,2.26.72,4.48,1.5,6.68,2.36,1.55.61,3.09,1.27,4.62,1.95.08.04.15.07.23.11.51.23,1.03.48,1.55.72.16.07.31.15.48.23.33.17.66.33,1,.49.46.22.9.45,1.35.68.71.36,1.41.73,2.09,1.1.56.3,1.12.61,1.66.93.46.25.91.51,1.35.77.57.34,1.14.68,1.72,1.03.6.37,1.21.74,1.78,1.12.66.41,1.3.86,1.96,1.3.73.48,1.45.98,2.16,1.48.67.48,1.34.96,1.99,1.45.67.5,1.31,1.02,1.96,1.53.23.17.46.36.69.54.66.53,1.31,1.06,1.95,1.61h-49.21c-.26-.06-.55-.12-.82-.18-.47-.11-.94-.19-1.42-.28-1.62-.31-3.27-.56-4.95-.75-.43-.06-.88-.12-1.34-.16-.21-.03-.42-.05-.65-.06-.47-.05-.94-.1-1.42-.13-.28-.02-.57-.05-.85-.06-.45-.03-.89-.05-1.34-.07-.65-.04-1.29-.07-1.93-.08-.77-.02-1.56-.03-2.33-.03-44.45,0-80.48,36.03-80.48,80.47,0,1.45.03,2.88.12,4.31.03.72.08,1.43.14,2.14.07.9.16,1.8.26,2.69.05.51.12,1.03.19,1.53.07.7.18,1.38.3,2.07,0,.02,0,.04.01.07.1.67.22,1.35.35,2.01.12.69.25,1.38.41,2.05.14.69.29,1.37.47,2.03.15.68.32,1.35.51,2.01.17.67.36,1.34.55,1.98.19.67.4,1.32.63,1.98.83,2.61,1.81,5.16,2.91,7.64h.01c.77,1.78,1.92,4.28,2.94,6.23h33.37s.07-.01.07-.01v-52.56h52.57v-52.57h63.22c5.95,7.29,11.04,14.99,14.71,22.97h.02c.12.26.23.54.37.84.03.08.08.18.13.28h-.01c.87,1.97,1.92,4.46,2.56,6.21.56,1.49,1.08,3,1.57,4.53.21.63.4,1.25.59,1.89.19.64.37,1.25.54,1.88.23.84.47,1.67.68,2.51.08.31.16.64.23.96.15.57.28,1.12.39,1.7.11.39.19.78.26,1.2.18.78.34,1.59.48,2.38.19.99.36,1.98.52,2.98.14.84.25,1.69.36,2.53.04.29.07.57.12.85.01.08.02.18.02.26.05.38.11.77.14,1.17.01.1.02.19.03.29.06.51.11,1.03.15,1.54.13,1.39.22,2.77.3,4.15.04.87.08,1.75.11,2.64.01.38.02.76.02,1.16.01.5.01,1,.01,1.49,0,56.8-46.05,102.85-102.85,102.85Z"/>
  </g>
  <polygon class="cls-1" points="307.28 80.15 307.28 129.12 285.75 107.58 285.69 58.62 307.28 80.15"/>
  <polygon class="cls-1" points="254.7 181.66 233.19 160.14 233.12 111.21 254.63 132.72 254.7 181.66"/>
</svg>