<?xml version="1.0" encoding="UTF-8"?>
<svg id="Layer_4" data-name="Layer 4" xmlns="http://www.w3.org/2000/svg" viewBox="0 0 192 188">
  <defs>
    <style>
      .cls-1 {
        fill: #7274a2;
      }

      .cls-1, .cls-2 {
        stroke-width: 0px;
      }

      .cls-2 {
        fill: #8591c9;
      }
    </style>
  </defs>
  <g>
    <path class="cls-1" d="M33.12,116.78v-11.64c0-3.24-1.61-4.86-4.73-4.86s-4.74,1.62-4.74,5.29v5.28c0,4.42.57,5.93,3.42,8.52l14.31,13.05c4.17,3.78,6.25,8.41,6.25,15.32v9.49c0,10.89-7.11,14.77-20,14.77-11.56,0-19.62-3.88-19.62-16.18v-12.61h14.88v14.23c0,3.24,1.61,4.85,4.73,4.85s4.74-1.61,4.74-5.93v-6.68c0-2.81-.95-6.26-3.6-8.74l-13.46-12.51c-4.74-4.31-6.63-7.98-6.63-14.45v-7.55c0-11.97,6.53-15.85,19.71-15.85,11.57,0,19.62,3.88,19.62,16.17v10.03h-14.88Z"/>
    <path class="cls-1" d="M65,172v-71.68h-13.42v-9.81h43.39v9.81h-13.32v71.68h-16.65Z"/>
    <path class="cls-1" d="M98.89,172v-81.49h36.73v10.46h-20.08v21.64h19.49v10.14h-19.49v28.69h20.18v10.57h-36.83Z"/>
    <path class="cls-1" d="M141.4,172v-65.35c0-12.19,9.4-16.07,21.65-16.07s20.96,3.88,20.96,16.18v19.2c0,10.35-6.86,17.9-19.39,17.9-1.96,0-4.11-.22-6.46-.65v28.79h-16.75ZM167.94,105.14c0-3.24-1.67-4.85-4.9-4.85s-4.9,1.62-4.9,4.85v28.69h3.53c3.33,0,6.27-2.26,6.27-6.79v-21.89Z"/>
  </g>
  <g>
    <path class="cls-2" d="M30.37,23.98h-10.29v-9.18h30.54v9.18h-10.36v54.94h-9.89V23.98Z"/>
    <path class="cls-2" d="M60.7,56.71v7.3c0,3.84.89,7.35,4.64,7.35,3.94,0,4.43-3.52,4.43-7.1v-.24h9.64v.23c0,5.21-1.11,15.44-13.83,15.44s-14.51-7.84-14.51-17.88v-16.28c0-6.8,2.14-17.06,14.46-17.06,10.61,0,14.06,7.15,14.06,16.98v11.26h-18.88ZM70.11,48.97v-5.09c0-4.6-1.06-7.08-4.61-7.08-3.19,0-4.73,2.26-4.73,7.09v5.08h9.33Z"/>
    <path class="cls-2" d="M114.94,68.75c0,3.13.01,8.28.19,10.17h-9.03c-.2-.93-.55-2.94-.64-3.64-1.69,3.04-4.38,4.41-8.2,4.41-7.47,0-10.48-6.92-10.48-14.42v-.86c0-12.24,8.25-15.5,17.2-15.5h1.14v-6.34c0-3.89-.46-6.08-3.48-6.08s-3.61,2.28-3.61,5.37v.81h-9.72v-.64c0-7.19,2.76-13.56,13.68-13.56,9.59,0,12.95,5.29,12.95,13.32v26.96ZM105.31,56.4h-1.65c-4.51,0-7.48,1.71-7.48,7.9v.78c0,3.5,1.27,6,4.36,6,3.31,0,4.77-2.29,4.77-8.99v-5.69Z"/>
    <path class="cls-2" d="M125.95,43.64c0-9.89,0-12.16-.1-14.4h9.44c.28,1.51.28,2.67.36,4.38,1.74-3.35,4.74-5.14,8.73-5.14s6.75,1.77,7.96,5.36c1.75-2.76,4.33-5.36,9.55-5.36s9.81,2.72,9.81,12.43v38.02h-9.89v-36.22c0-3.46-.91-5.37-3.7-5.37-3.48,0-4.3,2.69-4.3,7.6v33.99h-9.97v-35.98c0-4.53-1.34-5.61-3.72-5.61-3.53,0-4.28,2.72-4.28,7.46v34.13h-9.89v-35.28Z"/>
  </g>
</svg>