<?xml version="1.0" encoding="UTF-8"?>
<svg id="Steps" xmlns="http://www.w3.org/2000/svg" viewBox="0 0 177 128">
  <defs>
    <style>
      .cls-1 {
        fill: #7274a2;
        stroke: #4f476d;
      }

      .cls-1, .cls-2 {
        stroke-miterlimit: 10;
      }

      .cls-2 {
        fill: #8591c9;
        stroke: #50486e;
      }
    </style>
  </defs>
  <path class="cls-2" d="M82.84,13.32h-5.45l1.07-5.48h16.31l-1.07,5.48h-5.48l-6.48,33.64h-5.37l6.48-33.64Z"/>
  <path class="cls-2" d="M95.05,33.39c-.03.15-.88,4.56-.92,4.76-.48,2.4-.36,4.41,1.62,4.41s2.41-2.1,2.73-3.81l.16-.86h5.28l-.12.63c-.84,4.53-2.26,8.92-8.54,8.92-6.99,0-7.17-5.82-6.16-10.96l2.03-10.48c.9-4.72,2.41-9.76,8.77-9.76,6.81,0,7.36,5.12,6.33,10.42-.03.16-1.27,6.56-1.31,6.75h-9.86ZM100.62,28.68c.03-.14.74-3.87.76-4.01.36-2.03.19-3.84-1.75-3.84-1.75,0-2.46,1.5-2.9,3.8l-.8,4.05h4.68Z"/>
  <path class="cls-2" d="M122.41,39.48c-.45,2.41-1.25,6.48-1.36,7.48h-5.23c.06-.58.17-1.53.33-2.46-1.29,2-2.64,2.93-4.88,2.93-4.32,0-4.95-4.54-4.05-9.2,1.4-7.05,4.52-8.89,10.96-9.96.37-.06.69-.12,1.06-.18l.73-3.68c.42-2.14.26-3.58-1.4-3.58s-2.02,1.54-2.49,3.66l-.2.93h-5.32l.1-.5c.74-3.78,1.67-8.74,8.32-8.74,5.52,0,7.25,3.2,6.31,8.12l-2.9,15.18ZM118.46,32.7c-.28.06-.56.12-.84.18-2.84.67-4.25,1.67-4.98,5.06-.42,2.05-.47,4.31,1.46,4.31s2.89-2.09,3.7-6.22l.66-3.32Z"/>
  <path class="cls-2" d="M130.16,25.43c1.19-6.03,1.37-7.42,1.64-8.79h5.26c-.06.51-.18,1.46-.34,2.28,1.25-1.88,3-2.75,4.93-2.75,2.24,0,3.42,1.26,3.77,2.9,1.29-1.73,3.01-2.9,5.57-2.9,3.26,0,5.36,2.32,4.35,7.62l-4.46,23.16h-5.42l4.35-22.52c.39-2.16.16-3.34-1.37-3.34-1.84,0-2.58,1.69-3.17,4.66l-4.08,21.2h-5.47l4.3-22.37c.57-2.83-.05-3.49-1.29-3.49-1.89,0-2.65,1.73-3.21,4.57l-4.12,21.29h-5.37l4.14-21.52Z"/>
  <path class="cls-1" d="M47.51,107.29c0,9.49-6.4,12.87-18,12.87-10.41,0-17.66-3.38-17.66-14.09v-10.99h13.4v12.4c0,2.82,1.45,4.23,4.27,4.23s4.27-1.41,4.27-5.17v-5.82c0-2.44-.85-5.45-3.24-7.61l-12.12-10.9c-4.27-3.76-5.97-6.95-5.97-12.59v-6.58c0-10.43,5.89-13.81,17.75-13.81,10.41,0,17.66,3.38,17.66,14.09v8.74h-13.4v-10.15c0-2.82-1.45-4.23-4.27-4.23s-4.27,1.41-4.27,4.6v4.6c0,3.85.51,5.17,3.07,7.42l12.88,11.37c3.75,3.29,5.63,7.33,5.63,13.34v8.27Z"/>
  <path class="cls-1" d="M61.5,118.09v-58.34h-11.69v-8.55h37.8v8.55h-11.6v58.34h-14.5Z"/>
  <path class="cls-1" d="M91.02,118.09V51.21h31.99v9.11h-17.49v16.82h16.98v8.83h-16.98v22.92h17.58v9.21h-32.08Z"/>
  <path class="cls-1" d="M128.04,118.09v-54.86c0-10.62,8.19-14,18.86-14s18.26,3.38,18.26,14.09v16.72c0,9.02-5.97,15.59-16.89,15.59-1.71,0-3.58-.19-5.63-.56v23.02h-14.59ZM151.17,61.92c0-2.82-1.45-4.23-4.27-4.23s-4.27,1.41-4.27,4.23v24.99h3.07c2.9,0,5.46-1.97,5.46-5.92v-19.07Z"/>
</svg>