<?xml version="1.0" encoding="UTF-8"?>
<svg xmlns="http://www.w3.org/2000/svg" viewBox="0 0 392 208">
  <defs>
    <style>
      .cls-1 {
        fill: #fff;
        stroke-width: 0px;
      }
    </style>
  </defs>
  <g id="Layer_3" data-name="Layer 3">
    <g>
      <path class="cls-1" d="M33.12,128.78v-11.64c0-3.24-1.61-4.86-4.73-4.86s-4.74,1.62-4.74,5.29v5.28c0,4.42.57,5.93,3.42,8.52l14.31,13.05c4.17,3.78,6.25,8.41,6.25,15.32v9.49c0,10.89-7.11,14.77-20,14.77-11.56,0-19.62-3.88-19.62-16.18v-12.61h14.88v14.23c0,3.24,1.61,4.85,4.73,4.85s4.74-1.61,4.74-5.93v-6.68c0-2.81-.95-6.26-3.6-8.74l-13.46-12.51c-4.74-4.31-6.63-7.98-6.63-14.45v-7.55c0-11.97,6.53-15.85,19.71-15.85,11.57,0,19.62,3.88,19.62,16.17v10.03h-14.88Z"/>
      <path class="cls-1" d="M65,184v-71.68h-13.42v-9.81h43.39v9.81h-13.32v71.68h-16.65Z"/>
      <path class="cls-1" d="M98.89,184v-81.49h36.73v10.46h-20.08v21.64h19.49v10.14h-19.49v28.69h20.18v10.57h-36.83Z"/>
      <path class="cls-1" d="M141.4,184v-65.35c0-12.19,9.4-16.07,21.65-16.07s20.96,3.88,20.96,16.18v19.2c0,10.35-6.86,17.9-19.39,17.9-1.96,0-4.11-.22-6.46-.65v28.79h-16.75ZM167.94,117.14c0-3.24-1.67-4.85-4.9-4.85s-4.9,1.62-4.9,4.85v28.69h3.53c3.33,0,6.27-2.26,6.27-6.79v-21.89Z"/>
    </g>
    <g>
      <path class="cls-1" d="M30.36,35.98h-10.29v-9.18h30.54v9.18h-10.36v54.94h-9.89v-54.94Z"/>
      <path class="cls-1" d="M60.69,68.71v7.3c0,3.84.89,7.35,4.64,7.35,3.94,0,4.43-3.52,4.43-7.1v-.24h9.64v.23c0,5.21-1.11,15.44-13.83,15.44s-14.51-7.84-14.51-17.88v-16.28c0-6.8,2.14-17.06,14.46-17.06,10.61,0,14.06,7.15,14.06,16.98v11.26h-18.88ZM70.11,60.97v-5.09c0-4.6-1.06-7.08-4.61-7.08-3.19,0-4.73,2.26-4.73,7.09v5.08h9.33Z"/>
      <path class="cls-1" d="M114.94,80.75c0,3.13.01,8.28.19,10.17h-9.03c-.2-.93-.55-2.94-.64-3.64-1.69,3.04-4.38,4.41-8.2,4.41-7.47,0-10.48-6.92-10.48-14.42v-.86c0-12.24,8.25-15.5,17.2-15.5h1.14v-6.34c0-3.89-.46-6.08-3.48-6.08s-3.61,2.28-3.61,5.37v.81h-9.72v-.64c0-7.19,2.76-13.56,13.68-13.56,9.59,0,12.95,5.29,12.95,13.32v26.96ZM105.3,68.4h-1.65c-4.51,0-7.48,1.71-7.48,7.9v.78c0,3.5,1.27,6,4.36,6,3.31,0,4.77-2.29,4.77-8.99v-5.69Z"/>
      <path class="cls-1" d="M125.95,55.64c0-9.89,0-12.16-.1-14.4h9.44c.28,1.51.28,2.67.36,4.38,1.74-3.35,4.74-5.14,8.73-5.14s6.75,1.77,7.96,5.36c1.75-2.76,4.33-5.36,9.55-5.36s9.81,2.72,9.81,12.43v38.02h-9.89v-36.22c0-3.46-.91-5.37-3.7-5.37-3.48,0-4.3,2.69-4.3,7.6v33.99h-9.97v-35.98c0-4.53-1.34-5.61-3.72-5.61-3.53,0-4.28,2.72-4.28,7.46v34.13h-9.89v-35.28Z"/>
    </g>
  </g>
  <g id="Layer_6" data-name="Layer 6">
    <path class="cls-1" d="M303.18,44.42l20.36,20.36v46.15l-20.36-19.96v-46.55M302.1,41.79v49.19h-.45l22.98,22.53v-49.19l-22.53-22.53h0Z"/>
    <path class="cls-1" d="M253.99,93.61l20.36,20.36v46.12l-20.36-20.36v-46.12M252.9,90.98v49.18h-.06s.06.01.06.01l22.52,22.52h.01v-49.18l-22.53-22.53h0Z"/>
    <polygon class="cls-1" points="252.9 90.99 275.43 113.52 324.63 113.52 301.65 90.99 252.9 90.99"/>
    <path class="cls-1" d="M383.99,102.52c0-.37-.01-.73-.02-1.09-.02-.83-.05-1.65-.1-2.47-.07-1.29-.15-2.59-.27-3.88-.04-.48-.09-.97-.14-1.45-.01-.09-.02-.17-.03-.26-.03-.37-.08-.74-.13-1.1,0-.08-.01-.16-.02-.24-.03-.26-.07-.53-.11-.79-.1-.79-.21-1.59-.34-2.37-.14-.93-.3-1.87-.48-2.79-.13-.74-.28-1.49-.45-2.23-.08-.38-.15-.75-.25-1.12-.11-.53-.23-1.05-.37-1.59-.07-.3-.14-.61-.22-.9-.2-.78-.41-1.57-.63-2.35-.16-.59-.33-1.16-.51-1.75-.17-.6-.36-1.19-.55-1.77-.46-1.42-.95-2.84-1.47-4.23-.61-1.64-1.59-3.97-2.4-5.82h0c-.04-.09-.08-.17-.12-.26-.12-.27-.24-.54-.35-.78h-.02c-3.43-7.47-8.2-14.67-13.76-21.49h-59.16s22.53,22.53,22.53,22.53h27.35c1.06,1.82,2.27,4.16,3.1,5.82h.01c.33.63.63,1.27.92,1.92.32.64.6,1.29.88,1.95.29.65.57,1.32.83,1.98.27.66.52,1.34.77,2t.01.02c.24.67.48,1.34.7,2.01.23.68.45,1.37.65,2.06.2.64.39,1.29.55,1.95.03.1.07.18.08.27.16.58.32,1.16.46,1.76.03.12.05.23.09.34.12.51.24,1.03.35,1.55.36,1.66.66,3.34.9,5.05.09.55.16,1.12.23,1.69.08.59.14,1.19.2,1.78.05.44.09.88.12,1.32.03.29.05.59.07.89.03.38.05.76.08,1.14.03.63.05,1.27.08,1.9.02.73.03,1.46.03,2.2,0,41.59-33.72,75.31-75.31,75.31-.75,0-1.5-.01-2.25-.03-.54-.02-1.09-.03-1.62-.07-.47-.02-.93-.05-1.39-.09-.33-.02-.65-.04-.98-.08-.49-.03-.98-.08-1.46-.13-.49-.04-.97-.1-1.46-.16-.17-.02-.34-.04-.51-.07-.6-.08-1.21-.15-1.81-.25-.38-.05-.77-.12-1.15-.18-.12-.02-.24-.04-.36-.07-.34-.05-.67-.12-1.01-.18-.92-.16-1.84-.36-2.75-.57-.38-.09-.75-.17-1.12-.26-.33-.09-.65-.16-.99-.25-.52-.13-1.05-.27-1.58-.42-.07-.02-.13-.03-.18-.05-.75-.21-1.5-.43-2.24-.67-.79-.25-1.59-.52-2.38-.8-.75-.26-1.5-.53-2.24-.84h-38.41c.79.76,1.61,1.5,2.45,2.22.15.14.3.27.46.41.08.07.16.14.24.21.23.21.47.41.71.61.26.22.53.44.79.65.17.15.36.29.53.43.07.05.12.1.17.14.21.17.4.34.61.5,1.44,1.14,2.89,2.24,4.39,3.29.13.09.25.17.38.27.13.1.25.18.38.26.03.03.07.05.1.06.27.19.53.37.8.55.26.17.53.36.8.53.23.16.47.32.7.47.24.16.48.32.72.46.33.22.65.42.98.62.09.05.16.1.25.14.23.15.47.29.71.45.27.16.55.33.83.49.2.12.38.23.57.33.26.15.52.3.79.46.26.16.52.32.78.45.58.33,1.15.64,1.74.95.59.32,1.17.62,1.76.91.59.29,1.19.59,1.77.87.6.28,1.2.57,1.79.84h.01c.53.24,1.09.48,1.63.72.18.08.36.16.54.24.09.03.17.07.25.1.04.02.1.03.14.05.03.01.05.02.09.03.49.21.99.41,1.48.61l.42.16s.03.01.04.02c.46.18.91.36,1.38.53.46.17.92.35,1.39.51.08.03.16.05.24.08.23.09.47.17.71.25.23.08.47.16.71.24.1.03.18.07.28.1.35.12.68.23,1.03.34.11.04.22.08.33.11.35.11.7.21,1.04.32.34.11.67.21,1.02.3.16.05.34.1.51.15.16.04.34.09.51.14.23.07.46.13.7.2.23.05.46.12.7.17.11.03.22.07.33.1.13.03.26.07.39.1.3.08.62.15.92.23.47.12.94.23,1.39.33.62.14,1.23.28,1.85.4.28.07.55.12.84.17.45.09.89.17,1.33.25.35.07.69.13,1.03.18.47.09.95.16,1.41.23.59.1,1.19.18,1.77.26.04.01.09.01.13.02.05.01.11.01.15.02.27.04.53.08.8.11.57.08,1.13.14,1.71.2.45.05.89.1,1.35.13.41.04.83.09,1.24.12.49.03.98.08,1.47.1.48.04.97.07,1.46.09.82.04,1.64.08,2.47.1.83.02,1.65.03,2.48.03,53.15,0,96.25-43.09,96.25-96.25,0-.47,0-.92-.01-1.39Z"/>
    <path class="cls-1" d="M347.92,28.79c-.22-.17-.42-.35-.64-.51-.61-.48-1.22-.96-1.84-1.42-.62-.46-1.24-.91-1.87-1.36-.66-.48-1.34-.95-2.02-1.39-.61-.41-1.22-.83-1.83-1.22-.54-.36-1.11-.71-1.67-1.05-.53-.33-1.07-.64-1.6-.96-.41-.25-.84-.49-1.26-.73-.51-.29-1.03-.59-1.56-.87-.64-.35-1.29-.7-1.96-1.03-.41-.22-.84-.42-1.26-.63-.32-.15-.62-.3-.93-.46-.15-.08-.29-.15-.45-.22-.48-.23-.97-.46-1.45-.67-.08-.03-.14-.07-.22-.1-1.42-.64-2.87-1.25-4.33-1.83-2.04-.8-4.13-1.54-6.24-2.22-.71-.22-1.41-.44-2.13-.64-.71-.21-1.42-.41-2.14-.6-.59-.16-1.19-.32-1.78-.46-.61-.15-1.23-.29-1.85-.44-.39-.09-.78-.17-1.19-.26-.35-.08-.7-.14-1.04-.21-.61-.13-1.22-.24-1.84-.35-.73-.14-1.48-.26-2.22-.37-.11-.02-.21-.03-.32-.05-.63-.1-1.26-.18-1.89-.26-.2-.03-.38-.05-.58-.08-.67-.09-1.36-.16-2.04-.23-.08-.01-.16-.02-.24-.03-.54-.05-1.09-.11-1.63-.14-.35-.04-.71-.07-1.05-.09-.71-.05-1.42-.1-2.13-.13-.55-.03-1.11-.05-1.66-.07-1.1-.04-2.2-.07-3.31-.07-53.15,0-96.25,43.08-96.25,96.25,0,1.28.02,2.56.08,3.82.01.38.03.76.05,1.13.15,3.14.47,6.24.92,9.3.11.76.23,1.52.36,2.27.03.18.07.36.1.53.13.78.28,1.58.45,2.36.42,2.03.9,4.05,1.46,6.03.12.46.24.91.38,1.37.35,1.22.72,2.42,1.12,3.62.46,1.4,1.57,4.29,2.16,5.83h-.01c.06.17.15.35.21.52.12.32.2.51.2.51h0c2.59,6.46,6.9,13.69,12.55,21.49h63.88s-22.53-22.53-22.53-22.53h-31.3c-.95-1.83-2.02-4.17-2.75-5.83h-.01c-1.03-2.33-1.95-4.71-2.73-7.15-.21-.61-.4-1.23-.58-1.85-.18-.61-.36-1.23-.52-1.86-.17-.62-.34-1.25-.48-1.88-.16-.63-.3-1.26-.43-1.9-.14-.63-.27-1.27-.38-1.91-.12-.63-.24-1.26-.33-1.89-.01-.02-.01-.04-.01-.07-.11-.64-.21-1.28-.28-1.94-.07-.47-.13-.95-.17-1.42-.1-.84-.18-1.67-.25-2.52-.05-.66-.1-1.33-.13-2-.08-1.34-.11-2.67-.11-4.03,0-41.59,33.72-75.31,75.31-75.31.73,0,1.46.01,2.19.03.6.01,1.2.04,1.81.08.41.02.84.04,1.25.08.26.01.53.03.79.05.45.03.89.08,1.33.12.21.01.4.03.61.07.42.03.84.09,1.25.14,1.57.18,3.11.42,4.63.71.45.08.89.16,1.33.26.25.05.51.11.76.16h46.05c-.6-.51-1.22-1.01-1.83-1.5Z"/>
  </g>
</svg>