<?xml version="1.0" encoding="UTF-8"?>
<svg id="Steps" xmlns="http://www.w3.org/2000/svg" viewBox="0 0 232 248">
  <defs>
    <style>
      .cls-1, .cls-2 {
        stroke-width: 0px;
      }

      .cls-2 {
        fill: #050606;
      }
    </style>
  </defs>
  <g>
    <polygon class="cls-1" points="157.08 79.89 157.08 134.7 131.48 109.59 131.98 109.59 131.98 54.78 157.08 79.89"/>
    <path class="cls-1" d="M185.07,41.98h-51.31c-.28-.06-.57-.12-.85-.18-.48-.11-.98-.21-1.48-.29-1.7-.32-3.42-.58-5.16-.79-.46-.06-.92-.12-1.39-.16-.23-.04-.45-.06-.68-.07-.48-.05-.98-.1-1.48-.13-.29-.02-.59-.05-.88-.06-.46-.04-.93-.06-1.39-.08-.68-.04-1.34-.07-2.01-.08-.81-.02-1.62-.04-2.44-.04-46.34,0-83.91,37.57-83.91,83.91,0,1.51.04,3,.12,4.49.04.75.08,1.49.15,2.23.07.95.17,1.88.28,2.81.05.53.12,1.07.19,1.59.08.73.19,1.44.32,2.16,0,.02,0,.05.01.07.1.7.23,1.41.36,2.11.12.71.27,1.43.42,2.13.15.71.3,1.42.48,2.12.16.7.34,1.41.53,2.1.18.7.38,1.39.58,2.07.19.69.41,1.38.64,2.06.87,2.73,1.89,5.38,3.04,7.97h.01c.97,2.22,2.04,4.37,3.21,6.48h34.72v-54.8l25.1,25.1v54.8h-.01l-25.09-25.09H16.64c-.87-2.14-1.67-4.3-2.4-6.49-.45-1.33-.86-2.68-1.25-4.03-.16-.51-.29-1.02-.42-1.53-.62-2.22-1.15-4.46-1.62-6.72-.18-.87-.35-1.76-.5-2.63-.04-.19-.07-.39-.11-.59-.15-.84-.28-1.68-.4-2.53-.51-3.4-.86-6.86-1.03-10.36-.02-.41-.05-.84-.06-1.26-.06-1.41-.08-2.82-.08-4.25,0-59.23,48.01-107.24,107.24-107.24,1.24,0,2.46.02,3.68.07.62.01,1.24.04,1.85.07.79.04,1.59.08,2.37.15.39.02.79.05,1.18.1.61.04,1.21.1,1.82.16.08.01.18.02.27.04.76.07,1.53.16,2.28.25.22.02.42.05.64.08.7.08,1.41.18,2.11.29.12.02.23.04.35.06.82.12,1.66.25,2.47.41.69.12,1.37.24,2.05.39.39.07.78.15,1.16.23.45.1.88.19,1.32.29.69.16,1.38.32,2.06.48.67.16,1.33.33,1.99.51.8.21,1.6.44,2.39.67.8.23,1.59.47,2.37.71,2.35.75,4.68,1.58,6.95,2.47,1.62.64,3.23,1.32,4.82,2.04.08.04.16.07.24.11.53.24,1.08.5,1.61.75.17.07.33.16.5.24.35.17.69.34,1.04.51.47.23.95.46,1.41.7.74.38,1.47.76,2.18,1.15.58.32,1.16.64,1.73.97.47.27.95.53,1.41.81.59.35,1.19.7,1.78,1.07.63.39,1.26.78,1.87,1.18.68.44,1.36.9,2.04,1.36.76.5,1.51,1.02,2.25,1.55.7.5,1.39,1.01,2.08,1.51.69.52,1.37,1.05,2.05,1.59.24.18.47.38.71.57.68.55,1.37,1.1,2.04,1.67Z"/>
  </g>
  <path class="cls-1" d="M223.24,124c0,59.22-48.01,107.24-107.24,107.24-.92,0-1.84-.01-2.76-.04s-1.84-.06-2.75-.11c-.55-.02-1.09-.05-1.62-.1-.55-.02-1.09-.07-1.64-.11-.46-.04-.92-.08-1.38-.13-.51-.04-1.01-.08-1.5-.15-.64-.06-1.27-.13-1.9-.22-.3-.04-.59-.07-.9-.12-.05-.01-.11-.01-.17-.02-.05-.01-.1-.01-.15-.02-.65-.08-1.32-.18-1.98-.29-.52-.07-1.05-.16-1.57-.25-.39-.06-.76-.13-1.15-.21-.48-.08-.98-.18-1.48-.28-.32-.06-.62-.12-.93-.19-.69-.13-1.37-.29-2.06-.45-.51-.11-1.03-.23-1.55-.36-.34-.08-.69-.17-1.03-.25l-.44-.11c-.12-.04-.24-.07-.36-.11-.27-.06-.52-.13-.78-.19-.27-.07-.52-.15-.78-.22-.19-.06-.39-.11-.57-.16-.19-.06-.39-.11-.57-.17-.39-.11-.76-.22-1.14-.34-.39-.12-.78-.23-1.16-.35-.12-.04-.24-.07-.36-.12-.39-.12-.76-.24-1.15-.38-.11-.04-.21-.07-.32-.11-.27-.08-.53-.18-.79-.27-.27-.08-.53-.18-.79-.28-.08-.02-.18-.05-.27-.08-.52-.18-1.04-.38-1.55-.57-.52-.19-1.03-.39-1.54-.59-.01-.01-.04-.01-.05-.02l-.47-.18c-.55-.22-1.1-.45-1.65-.68-.04-.01-.06-.02-.1-.04-.05-.02-.11-.04-.16-.06-.08-.04-.18-.07-.28-.11-.21-.08-.4-.18-.61-.27-.61-.27-1.22-.53-1.82-.8h-.01c-.67-.3-1.33-.62-2-.93-.65-.32-1.32-.64-1.97-.97-.65-.33-1.31-.67-1.96-1.02-.65-.34-1.3-.69-1.94-1.05-.29-.15-.58-.31-.87-.5-.3-.17-.59-.34-.88-.51-.21-.11-.41-.23-.63-.36-.3-.18-.62-.36-.92-.55-.27-.17-.53-.33-.79-.5-.1-.05-.18-.1-.28-.16-.36-.22-.73-.45-1.09-.69-.27-.16-.53-.33-.8-.51-.25-.17-.52-.34-.78-.52-.3-.19-.61-.4-.9-.59-.3-.21-.59-.41-.9-.62-.04-.01-.07-.04-.11-.07-.15-.08-.28-.18-.42-.29-.15-.11-.28-.21-.42-.3-1.67-1.18-3.3-2.4-4.89-3.67-.23-.18-.45-.36-.68-.56-.06-.05-.12-.1-.19-.16-.19-.16-.4-.32-.59-.48-.29-.24-.59-.48-.88-.73-.27-.22-.53-.45-.79-.68-.08-.07-.18-.16-.27-.23-.17-.16-.34-.3-.51-.46-.93-.8-1.84-1.62-2.73-2.47h42.79c.82.34,1.66.64,2.5.93.88.32,1.77.62,2.65.9.82.27,1.66.52,2.5.75.06.02.13.04.21.06.58.17,1.18.33,1.76.47.38.1.74.18,1.1.28.41.1.82.19,1.25.29,1.02.23,2.04.45,3.07.63.38.07.75.15,1.13.21.13.02.27.05.4.07.42.07.86.15,1.28.21.67.11,1.34.19,2.01.28.19.02.38.05.57.07.55.07,1.08.13,1.62.18.53.06,1.08.11,1.62.15.36.04.73.06,1.09.08.51.04,1.03.07,1.55.1.59.04,1.2.05,1.81.07.84.02,1.67.04,2.51.04,46.34,0,83.91-37.57,83.91-83.91,0-.82-.01-1.64-.04-2.45-.02-.7-.05-1.42-.08-2.12-.02-.42-.05-.85-.08-1.27-.01-.34-.04-.67-.07-.99-.04-.48-.07-.98-.13-1.47-.06-.67-.13-1.33-.22-1.99-.07-.63-.16-1.26-.25-1.88-.27-1.9-.61-3.77-1.01-5.62-.12-.58-.25-1.16-.39-1.73-.04-.12-.06-.24-.1-.38-.16-.67-.33-1.32-.51-1.96-.01-.1-.05-.19-.08-.3-.18-.73-.4-1.45-.62-2.17-.23-.76-.47-1.53-.73-2.29-.24-.75-.51-1.49-.78-2.24t-.01-.02c-.28-.74-.56-1.49-.86-2.23-.29-.74-.59-1.48-.92-2.21-.32-.73-.63-1.45-.98-2.17-.33-.73-.67-1.44-1.03-2.14h-.01c-1.1-2.22-2.31-4.39-3.62-6.48h26.39c.96,2.13,1.85,4.29,2.67,6.48.58,1.55,1.13,3.13,1.64,4.71.22.65.42,1.31.62,1.97.21.65.39,1.3.57,1.95.24.87.48,1.74.7,2.62.08.33.17.67.24,1.01.16.59.29,1.18.41,1.77.11.41.19.82.28,1.25.18.82.35,1.66.5,2.48.19,1.03.38,2.07.53,3.11.15.87.27,1.76.38,2.64.05.29.08.59.12.88.01.08.02.18.02.27.06.4.11.81.15,1.22.01.1.02.19.04.29.06.53.11,1.08.16,1.61.13,1.44.23,2.88.3,4.33.05.91.08,1.83.11,2.75.01.4.02.8.02,1.21.01.52.01,1.03.01,1.55Z"/>
  <path class="cls-2" d="M130.99,110.81l23.13,22.68h-51.34l-22.68-22.68h50.89M131.48,109.6h-54.31l25.1,25.1h54.81l-25.6-25.1h0Z"/>
  <path class="cls-1" d="M134.91,56h62.42c6.22,7.69,11.11,15.3,14.57,22.68h-54.31l-22.68-22.68M131.98,54.78l25.1,25.1h56.69c-3.85-8.74-9.39-17.15-15.87-25.1h-65.92Z"/>
  <path class="cls-1" d="M76.67,165.62l22.68,22.68H31.71c-6.24-8.67-10.6-16.12-13.3-22.68h58.25M77.17,164.41H16.64c2.82,7.49,7.82,15.94,14.45,25.1h71.18s-25.1-25.1-25.1-25.1h0Z"/>
</svg>