<?xml version="1.0" encoding="UTF-8"?>
<svg id="Layer_8" data-name="Layer 8" xmlns="http://www.w3.org/2000/svg" viewBox="0 0 208 208">
  <defs>
    <style>
      .cls-1 {
        fill: #231630;
        stroke-width: 0px;
      }
    </style>
  </defs>
  <polygon class="cls-1" points="69.99 93.61 90.35 113.96 90.35 160.08 69.99 139.73 69.99 93.61"/>
  <polygon class="cls-1" points="119.18 44.42 139.54 64.77 139.54 110.93 119.18 90.97 119.18 44.42"/>
  <path class="cls-1" d="M-.35,0v208h208.35V0H-.35ZM103.75,200.16c-.82,0-1.65-.01-2.47-.03-.83-.02-1.66-.06-2.47-.1-.49-.02-.98-.04-1.46-.09-.49-.02-.98-.06-1.47-.1-.41-.03-.82-.07-1.24-.11-.45-.04-.9-.08-1.35-.14-.57-.05-1.14-.11-1.7-.19-.27-.03-.54-.07-.81-.11-.04-.01-.1-.01-.15-.02-.04-.01-.09-.01-.13-.02-.59-.08-1.19-.17-1.77-.26-.47-.07-.95-.15-1.42-.23-.34-.06-.68-.12-1.03-.19-.43-.07-.88-.16-1.33-.25-.28-.05-.55-.11-.83-.17-.62-.12-1.23-.26-1.85-.4-.46-.1-.93-.21-1.39-.33-.31-.08-.62-.15-.93-.23-.13-.03-.26-.06-.39-.1-.11-.03-.22-.06-.33-.09-.24-.06-.46-.12-.69-.18-.24-.06-.47-.13-.7-.19-.17-.06-.35-.1-.51-.15-.17-.05-.35-.09-.51-.15-.35-.1-.69-.19-1.02-.3-.35-.11-.7-.21-1.05-.32-.1-.03-.21-.06-.32-.11-.35-.1-.69-.21-1.04-.33-.09-.04-.18-.07-.28-.1-.24-.08-.48-.16-.7-.24-.24-.08-.48-.16-.71-.25-.08-.02-.16-.04-.24-.08-.47-.16-.94-.33-1.39-.51-.47-.17-.93-.35-1.38-.53,0-.01-.04-.01-.05-.02l-.42-.17c-.49-.19-.99-.4-1.48-.6-.03-.02-.05-.03-.09-.04-.04-.02-.09-.03-.14-.05-.07-.03-.16-.07-.25-.1-.18-.08-.36-.16-.54-.24-.55-.24-1.1-.48-1.63-.72h0c-.6-.27-1.2-.55-1.8-.83-.59-.29-1.18-.58-1.77-.87-.59-.3-1.18-.6-1.76-.92-.59-.3-1.17-.62-1.74-.94-.26-.13-.52-.29-.79-.45-.27-.15-.53-.3-.79-.45-.18-.1-.37-.21-.56-.33-.28-.16-.56-.33-.83-.49-.24-.15-.48-.29-.71-.45-.08-.04-.16-.08-.25-.14-.32-.19-.65-.4-.98-.62-.24-.14-.47-.29-.71-.45-.23-.16-.47-.31-.7-.47-.27-.18-.54-.36-.8-.53-.28-.19-.54-.37-.81-.56-.03-.01-.06-.03-.1-.06-.13-.08-.25-.17-.38-.27-.13-.09-.25-.18-.38-.27-1.5-1.05-2.96-2.15-4.39-3.29-.21-.17-.4-.33-.61-.5-.05-.05-.11-.09-.17-.14-.18-.15-.36-.29-.54-.44-.26-.22-.53-.43-.79-.65-.24-.2-.48-.4-.71-.61-.07-.07-.16-.14-.24-.21-.15-.14-.3-.27-.45-.41-.84-.72-1.66-1.46-2.45-2.22h38.41c.74.31,1.49.58,2.24.84.79.28,1.58.55,2.38.8.74.24,1.49.47,2.24.68.05.02.12.03.18.05.52.15,1.06.3,1.58.43.34.08.66.16.99.25.37.08.74.17,1.12.26.91.2,1.83.4,2.75.56.34.07.67.13,1.01.19.12.02.24.04.36.06.38.07.77.13,1.15.19.6.1,1.21.17,1.81.25.17.02.33.04.51.06.49.07.97.12,1.46.17.47.05.96.09,1.45.13.33.03.66.05.98.07.46.04.93.07,1.39.09.54.03,1.08.04,1.62.07.75.02,1.5.03,2.25.03,41.6,0,75.32-33.72,75.32-75.32,0-.73,0-1.46-.03-2.19-.03-.63-.05-1.27-.08-1.9-.02-.39-.04-.77-.08-1.15,0-.3-.03-.59-.06-.89-.04-.43-.07-.88-.12-1.31-.06-.6-.12-1.2-.2-1.79-.06-.56-.14-1.13-.23-1.68-.24-1.71-.54-3.38-.9-5.05-.11-.52-.23-1.04-.35-1.55-.03-.11-.05-.22-.08-.34-.15-.6-.3-1.19-.46-1.76-.01-.09-.04-.18-.08-.27-.16-.66-.36-1.31-.55-1.95-.21-.68-.43-1.37-.65-2.06-.22-.67-.46-1.33-.7-2.01t0-.02c-.25-.66-.5-1.34-.77-2-.26-.66-.54-1.33-.83-1.98-.28-.65-.56-1.3-.88-1.94-.29-.66-.6-1.3-.92-1.93h0c-.83-1.66-2.04-3.99-3.1-5.82h-27.35v49.2h-49.2v49.18h-.01.01s-63.88.01-63.88.01c-5.65-7.81-9.96-15.03-12.55-21.49h0s-.08-.2-.2-.52c-.07-.17-.15-.35-.21-.52h0c-.6-1.55-1.7-4.43-2.17-5.83-.4-1.2-.77-2.41-1.12-3.62-.14-.46-.26-.92-.38-1.37-.55-1.99-1.03-4.01-1.45-6.04-.17-.78-.32-1.58-.45-2.36-.03-.17-.06-.35-.1-.53-.13-.75-.25-1.51-.36-2.27-.45-3.06-.77-6.16-.92-9.3-.02-.37-.04-.75-.05-1.13-.06-1.26-.08-2.54-.08-3.82C7.51,50.75,50.6,7.67,103.75,7.67c1.11,0,2.21.02,3.31.06.56.01,1.11.03,1.66.07.71.03,1.43.07,2.14.13.34.02.7.04,1.05.08.54.04,1.09.09,1.63.15l.24.03c.69.06,1.37.14,2.04.23.2.02.39.04.58.07.63.08,1.26.17,1.89.26.11.03.21.04.32.06.74.11,1.49.23,2.22.37.62.11,1.23.22,1.83.35.35.06.7.13,1.05.2.4.09.79.18,1.18.26.62.14,1.24.29,1.85.44.6.14,1.2.29,1.79.45.71.19,1.43.4,2.14.6.72.21,1.42.43,2.13.64,2.11.68,4.2,1.42,6.24,2.22,1.46.58,2.9,1.19,4.33,1.83.07.03.14.06.22.1.47.22.96.44,1.44.67.15.07.3.14.45.22.31.15.62.3.93.46.43.2.85.41,1.26.63.67.33,1.32.68,1.96,1.03.52.28,1.05.58,1.56.87.42.24.85.48,1.26.73.53.31,1.06.63,1.6.95.56.35,1.13.7,1.67,1.06.61.39,1.22.8,1.83,1.22.68.44,1.36.91,2.02,1.39.63.45,1.25.9,1.87,1.36.62.47,1.23.94,1.84,1.42.22.17.42.34.64.51.61.49,1.23.99,1.83,1.5h-46.05c-.25-.05-.52-.1-.77-.16-.43-.1-.88-.18-1.32-.26-1.52-.28-3.07-.52-4.63-.71-.42-.05-.83-.1-1.25-.14-.21-.03-.41-.05-.61-.06-.44-.05-.88-.09-1.33-.12-.26-.02-.53-.05-.79-.06-.42-.03-.84-.05-1.25-.07-.61-.04-1.21-.07-1.81-.08-.73-.02-1.46-.03-2.19-.03-41.59,0-75.31,33.72-75.31,75.31,0,1.36.03,2.7.11,4.04.03.67.08,1.33.13,2,.07.84.15,1.68.25,2.52.04.48.11.96.18,1.42.07.66.17,1.3.28,1.94,0,.02,0,.04,0,.06.09.64.21,1.27.32,1.9.11.64.24,1.28.39,1.91.13.64.27,1.27.43,1.9.14.63.31,1.26.48,1.88.16.64.34,1.25.52,1.86.17.62.37,1.24.58,1.85.78,2.45,1.69,4.83,2.73,7.16h0c.72,1.66,1.8,4,2.75,5.83h31.23s.06-.01.06-.01v-49.18h49.2v-49.2h59.16c5.57,6.83,10.33,14.03,13.76,21.5h.02c.11.24.23.5.35.78.04.08.08.17.12.25h0c.81,1.85,1.79,4.18,2.4,5.82.52,1.39,1.01,2.81,1.47,4.23.19.59.38,1.17.55,1.77.19.59.35,1.17.51,1.75.22.79.44,1.57.63,2.35.08.3.16.6.22.9.14.54.26,1.06.37,1.59.1.37.18.74.25,1.12.16.74.32,1.49.45,2.23.17.93.33,1.86.48,2.8.13.78.23,1.57.33,2.37.05.26.08.53.11.79.01.08.02.16.02.24.06.36.1.73.13,1.1.01.09.03.17.04.26.05.48.09.97.14,1.45.12,1.29.2,2.58.27,3.88.04.81.08,1.64.1,2.47.01.35.02.71.02,1.08,0,.47,0,.93,0,1.39,0,53.16-43.09,96.25-96.25,96.25Z"/>
</svg>