<?xml version="1.0" encoding="UTF-8"?>
<svg id="Steps" xmlns="http://www.w3.org/2000/svg" viewBox="0 0 392 248">
  <defs>
    <style>
      .cls-1 {
        fill: #e9f1f2;
        stroke-width: 0px;
      }
    </style>
  </defs>
  <g>
    <path class="cls-1" d="M92.82,124.54h-4.98l.98-5.01h14.89l-.98,5.01h-5.01l-5.91,30.71h-4.91l5.91-30.71Z"/>
    <path class="cls-1" d="M103.97,142.87c-.03.14-.8,4.16-.84,4.34-.44,2.19-.33,4.03,1.48,4.03s2.2-1.92,2.49-3.48l.15-.79h4.82l-.11.57c-.77,4.14-2.07,8.14-7.8,8.14-6.38,0-6.54-5.31-5.63-10l1.85-9.57c.82-4.31,2.2-8.91,8.01-8.91,6.22,0,6.72,4.67,5.78,9.51-.03.15-1.16,5.99-1.2,6.16h-9.01ZM109.06,138.57c.02-.13.67-3.54.7-3.66.33-1.86.17-3.51-1.6-3.51-1.59,0-2.25,1.37-2.65,3.47l-.73,3.7h4.28Z"/>
    <path class="cls-1" d="M128.95,148.42c-.41,2.2-1.14,5.92-1.24,6.83h-4.77c.05-.53.16-1.4.3-2.24-1.18,1.83-2.41,2.67-4.46,2.67-3.94,0-4.52-4.14-3.7-8.4,1.28-6.44,4.12-8.12,10.01-9.09.33-.05.63-.11.97-.16l.67-3.36c.38-1.95.23-3.27-1.27-3.27s-1.84,1.41-2.27,3.34l-.18.84h-4.86l.09-.46c.68-3.45,1.53-7.98,7.6-7.98,5.04,0,6.62,2.92,5.77,7.41l-2.65,13.86ZM125.34,142.24c-.25.05-.51.11-.76.16-2.59.61-3.88,1.53-4.55,4.62-.38,1.88-.43,3.93,1.34,3.93s2.64-1.9,3.38-5.68l.6-3.03Z"/>
    <path class="cls-1" d="M136.03,135.6c1.08-5.51,1.25-6.77,1.49-8.02h4.8c-.05.47-.16,1.33-.31,2.08,1.14-1.72,2.74-2.51,4.51-2.51,2.04,0,3.12,1.15,3.44,2.65,1.18-1.58,2.75-2.65,5.09-2.65,2.98,0,4.9,2.12,3.97,6.96l-4.07,21.14h-4.95l3.98-20.56c.36-1.97.15-3.05-1.25-3.05-1.68,0-2.36,1.55-2.9,4.25l-3.73,19.36h-4.99l3.92-20.42c.52-2.59-.04-3.19-1.18-3.19-1.72,0-2.42,1.58-2.93,4.17l-3.76,19.44h-4.91l3.78-19.65Z"/>
  </g>
  <g>
    <path class="cls-1" d="M60.56,210.95c0,8.66-5.84,11.75-16.44,11.75-9.5,0-16.13-3.09-16.13-12.87v-10.04h12.23v11.32c0,2.57,1.32,3.86,3.9,3.86s3.89-1.29,3.89-4.72v-5.32c0-2.23-.78-4.98-2.96-6.95l-11.06-9.95c-3.89-3.43-5.45-6.35-5.45-11.49v-6c0-9.52,5.38-12.61,16.2-12.61,9.5,0,16.13,3.09,16.13,12.87v7.98h-12.23v-9.26c0-2.57-1.32-3.86-3.9-3.86s-3.89,1.29-3.89,4.2v4.2c0,3.52.47,4.72,2.8,6.78l11.76,10.38c3.43,3,5.14,6.69,5.14,12.18v7.55Z"/>
    <path class="cls-1" d="M73.34,220.81v-53.27h-10.67v-7.81h34.51v7.81h-10.59v53.27h-13.24Z"/>
    <path class="cls-1" d="M100.29,220.81v-61.07h29.21v8.32h-15.97v15.35h15.5v8.06h-15.5v20.93h16.05v8.41h-29.29Z"/>
    <path class="cls-1" d="M134.1,220.81v-50.09c0-9.69,7.48-12.78,17.22-12.78s16.67,3.09,16.67,12.87v15.27c0,8.23-5.45,14.24-15.42,14.24-1.56,0-3.27-.17-5.14-.51v21.01h-13.32ZM155.21,169.52c0-2.57-1.32-3.86-3.89-3.86s-3.9,1.29-3.9,3.86v22.82h2.8c2.65,0,4.99-1.8,4.99-5.4v-17.41Z"/>
  </g>
  <path class="cls-1" d="M281.1,61.37l21.08,21.08v47.6l-21.08-20.67v-48.01M280.1,58.96v50.39h-.46l23.54,23.08v-50.39l-23.08-23.08h0Z"/>
  <path class="cls-1" d="M230.71,111.76l21.08,21.08v47.57l-21.08-21.08v-47.57M229.71,109.35v50.38h-.07s.07.01.07.01l23.07,23.07h.01v-50.38l-23.08-23.08h0Z"/>
  <polygon class="cls-1" points="229.71 109.35 252.79 132.43 303.18 132.43 279.64 109.35 229.71 109.35"/>
  <path class="cls-1" d="M363.99,121.17c0-.38-.01-.75-.02-1.11-.02-.85-.06-1.69-.1-2.53-.07-1.33-.16-2.65-.28-3.98-.04-.49-.09-.99-.14-1.48-.01-.09-.02-.18-.03-.27-.03-.38-.08-.76-.13-1.13,0-.08-.01-.17-.02-.25-.03-.27-.07-.55-.11-.81-.1-.81-.21-1.63-.35-2.43-.14-.96-.31-1.92-.49-2.86-.13-.76-.29-1.53-.46-2.28-.08-.39-.16-.77-.26-1.15-.11-.55-.23-1.08-.38-1.63-.07-.31-.14-.62-.22-.92-.2-.8-.42-1.6-.65-2.41-.17-.6-.33-1.19-.52-1.79-.18-.61-.37-1.21-.57-1.82-.47-1.46-.97-2.91-1.5-4.33-.62-1.68-1.63-4.07-2.46-5.96h0c-.04-.09-.08-.18-.12-.27-.12-.28-.24-.55-.35-.8h-.02c-3.51-7.65-8.4-15.03-14.1-22.02h-60.61s23.08,23.08,23.08,23.08h28.02c1.09,1.87,2.33,4.26,3.17,5.96h.01c.33.65.65,1.3.95,1.97.32.66.61,1.33.9,1.99.3.67.58,1.35.85,2.03.28.68.53,1.37.79,2.05t.01.02c.25.69.49,1.37.71,2.06.23.7.46,1.4.67,2.11.2.66.4,1.33.57,1.99.03.1.07.19.08.28.17.59.32,1.19.47,1.8.03.12.06.23.09.35.12.52.24,1.06.36,1.59.37,1.7.68,3.42.92,5.17.09.57.17,1.15.23,1.73.08.6.14,1.21.2,1.83.06.45.09.9.12,1.35.03.3.06.6.07.91.03.39.06.78.08,1.17.03.65.06,1.3.08,1.95.02.75.03,1.49.03,2.25,0,42.61-34.54,77.15-77.15,77.15-.77,0-1.54-.01-2.31-.03-.56-.02-1.11-.03-1.66-.07-.48-.02-.96-.06-1.43-.09-.33-.02-.67-.04-1-.08-.5-.03-1-.08-1.49-.13-.5-.04-.99-.1-1.49-.17-.18-.02-.35-.04-.52-.07-.61-.08-1.24-.16-1.85-.26-.39-.06-.79-.12-1.18-.19-.12-.02-.25-.04-.37-.07-.35-.06-.69-.12-1.04-.19-.95-.17-1.88-.37-2.82-.58-.39-.09-.77-.18-1.15-.27-.33-.09-.67-.17-1.01-.26-.53-.13-1.08-.28-1.62-.43-.07-.02-.13-.03-.19-.06-.77-.21-1.54-.45-2.29-.69-.81-.26-1.63-.53-2.44-.82-.77-.27-1.54-.55-2.29-.86h-39.34c.81.78,1.65,1.54,2.51,2.27.16.14.31.28.47.42.08.07.17.14.25.21.23.21.48.42.72.62.27.22.55.45.81.67.18.16.37.3.55.45.07.06.12.1.18.14.21.18.41.35.62.51,1.47,1.17,2.96,2.29,4.5,3.38.13.09.26.18.39.28.13.1.26.19.39.27.03.03.07.06.1.07.28.19.55.38.82.57.27.18.55.37.82.55.23.17.48.32.71.48.25.17.49.32.74.47.33.22.67.43,1,.63.09.06.17.1.26.14.23.16.48.3.72.46.28.17.57.33.85.5.2.12.39.23.58.33.27.16.53.31.81.47.27.17.53.32.8.46.59.33,1.18.66,1.78.97.6.32,1.2.63,1.8.94.6.3,1.21.6,1.82.89.61.29,1.23.58,1.84.86h.01c.55.24,1.11.49,1.67.74.19.08.37.17.56.25.09.03.18.07.26.1.04.02.1.03.14.06.03.01.06.02.09.03.5.21,1.01.42,1.52.62l.43.17s.03.01.04.02c.47.19.94.37,1.41.55.47.18.95.36,1.43.52.08.03.17.06.24.08.23.09.48.18.72.26.23.08.48.17.72.25.1.03.19.07.29.1.36.12.7.23,1.06.35.11.04.22.08.33.11.36.11.71.21,1.07.32.35.11.69.21,1.05.31.17.06.35.1.52.16.17.04.35.09.52.14.23.07.47.13.71.2.23.06.47.12.71.18.11.03.22.07.33.1.13.03.27.07.4.1.31.08.63.16.95.23.48.12.96.23,1.43.33.64.14,1.26.29,1.89.41.29.07.57.12.86.18.46.09.91.18,1.36.26.36.07.7.13,1.06.19.48.09.97.17,1.45.23.6.1,1.21.19,1.82.27.04.01.09.01.13.02.06.01.11.01.16.02.28.04.55.08.82.11.58.08,1.16.14,1.75.2.46.06.91.1,1.38.13.42.04.85.09,1.27.12.5.03,1,.08,1.5.1.49.04.99.07,1.49.09.84.04,1.68.08,2.53.1.85.02,1.69.03,2.54.03,54.45,0,98.59-44.14,98.59-98.59,0-.48,0-.95-.01-1.43Z"/>
  <path class="cls-1" d="M327.04,45.64c-.22-.18-.43-.36-.66-.52-.62-.49-1.25-.98-1.88-1.46-.64-.47-1.27-.94-1.92-1.39-.68-.49-1.37-.97-2.07-1.43-.62-.42-1.25-.85-1.87-1.25-.56-.37-1.14-.72-1.72-1.08-.55-.33-1.09-.66-1.64-.98-.42-.26-.86-.5-1.29-.75-.52-.3-1.06-.6-1.59-.89-.66-.36-1.33-.71-2-1.06-.42-.22-.86-.43-1.29-.65-.32-.16-.63-.31-.96-.47-.16-.08-.3-.16-.46-.22-.49-.23-.99-.47-1.48-.69-.08-.03-.14-.07-.22-.1-1.46-.66-2.94-1.28-4.43-1.87-2.09-.82-4.23-1.58-6.39-2.27-.72-.22-1.45-.45-2.18-.66-.72-.21-1.46-.42-2.19-.61-.6-.17-1.21-.32-1.83-.47-.62-.16-1.26-.3-1.89-.45-.4-.09-.8-.18-1.21-.27-.36-.08-.71-.15-1.07-.21-.62-.13-1.25-.24-1.88-.36-.75-.14-1.51-.27-2.27-.38-.11-.02-.21-.03-.32-.06-.65-.1-1.29-.19-1.94-.27-.2-.03-.39-.06-.59-.08-.69-.09-1.39-.17-2.09-.23-.08-.01-.17-.02-.24-.03-.56-.06-1.11-.11-1.67-.14-.36-.04-.72-.07-1.08-.09-.72-.06-1.46-.1-2.18-.13-.57-.03-1.14-.06-1.7-.07-1.13-.04-2.25-.07-3.39-.07-54.45,0-98.59,44.13-98.59,98.59,0,1.31.02,2.62.08,3.91.01.39.03.78.06,1.16.16,3.22.48,6.39.95,9.52.11.78.23,1.56.37,2.33.03.19.07.37.1.55.13.8.29,1.62.46,2.42.43,2.08.92,4.14,1.49,6.18.12.47.24.94.39,1.4.36,1.25.74,2.48,1.15,3.71.48,1.44,1.6,4.39,2.22,5.98h-.01c.07.18.15.36.22.54.13.33.2.53.2.53h0c2.65,6.62,7.07,14.02,12.86,22.02h65.44s-23.08-23.08-23.08-23.08h-32.06c-.97-1.88-2.07-4.27-2.82-5.98h-.01c-1.06-2.38-1.99-4.82-2.8-7.33-.21-.62-.41-1.26-.59-1.89-.19-.62-.37-1.26-.53-1.9-.18-.64-.35-1.28-.49-1.93-.17-.65-.31-1.29-.45-1.95-.14-.65-.28-1.3-.39-1.96-.12-.65-.24-1.29-.33-1.94-.01-.02-.01-.04-.01-.07-.11-.66-.21-1.31-.29-1.98-.07-.48-.13-.97-.18-1.46-.1-.86-.19-1.72-.26-2.58-.06-.68-.1-1.36-.13-2.05-.08-1.37-.11-2.74-.11-4.13,0-42.61,34.54-77.15,77.15-77.15.75,0,1.49.01,2.24.03.61.01,1.23.04,1.85.08.42.02.86.04,1.28.08.27.01.55.03.81.06.46.03.91.08,1.36.12.21.01.41.03.62.07.43.03.86.09,1.28.14,1.6.19,3.19.43,4.75.72.46.08.91.17,1.36.27.26.06.52.11.78.17h47.17c-.61-.52-1.25-1.04-1.87-1.54Z"/>
</svg>