<?xml version="1.0" encoding="UTF-8"?>
<svg id="Layer_4" data-name="Layer 4" xmlns="http://www.w3.org/2000/svg" xmlns:xlink="http://www.w3.org/1999/xlink" viewBox="0 0 208 208">
  <defs>
    <style>
      .cls-1 {
        fill: #7274a2;
      }

      .cls-1, .cls-2, .cls-3, .cls-4, .cls-5, .cls-6 {
        stroke-width: 0px;
      }

      .cls-2 {
        fill: url(#linear-gradient);
      }

      .cls-3 {
        fill: none;
      }

      .cls-4 {
        fill: #4f476d;
      }

      .cls-5 {
        fill: #50486e;
      }

      .cls-6 {
        fill: #8591c9;
      }
    </style>
    <linearGradient id="linear-gradient" x1="52.72" y1="28.94" x2="141.26" y2="158.54" gradientUnits="userSpaceOnUse">
      <stop offset="0" stop-color="#8591c9"/>
      <stop offset=".55" stop-color="#4e466d"/>
      <stop offset=".97" stop-color="#2c2c54"/>
    </linearGradient>
  </defs>
  <g>
    <g>
      <path class="cls-1" d="M104,200.5c-.82,0-1.66,0-2.48-.03-.83-.02-1.66-.06-2.47-.1-.5-.02-1-.04-1.49-.09-.29-.01-.61-.03-.93-.05l-.5-.03-1.26-.12c-.49-.04-.92-.08-1.35-.13-.58-.06-1.15-.12-1.71-.2-.28-.03-.55-.06-.83-.11-.07,0-.12-.01-.16-.02-.07,0-.11-.01-.15-.03-.56-.07-1.14-.15-1.73-.25l-.18-.03c-.41-.06-.82-.12-1.24-.2-.2-.03-.42-.07-.64-.11l-1.71-.32-.29-.06c-.19-.04-.38-.08-.58-.12-.54-.11-1.1-.23-1.66-.36l-.17-.04c-.46-.1-.93-.2-1.4-.32-.3-.08-.61-.16-.91-.23l-.39-.1c-.14-.04-.27-.07-.39-.12-.06,0-.18-.04-.3-.07-.11-.03-.22-.06-.33-.08-.27-.07-.51-.14-.74-.21l-.17-.04c-.12-.03-.23-.06-.34-.09l-.12-.03c-.15-.04-.29-.08-.42-.13l-.21-.06c-.27-.08-.54-.15-.8-.24,0,0-.84-.25-1.04-.32-.11-.03-.23-.06-.35-.11-.33-.1-.67-.21-1.02-.34-.04-.01-.26-.09-.26-.09-.19-.06-.38-.12-.57-.19l-.17-.06c-.23-.07-.47-.16-.72-.26-.07-.01-.17-.04-.26-.08-.3-.1-.64-.23-.97-.35l-1.88-.72h-.01s-.06-.04-.06-.04l-.28-.11c-.5-.19-1-.41-1.5-.62l-.22-.07c-.08-.04-.15-.07-.22-.09,0,0-1.61-.71-2.11-.92l-.13-.05c-.58-.28-1.18-.56-1.77-.83-.6-.29-1.21-.58-1.79-.88-.59-.29-1.17-.59-1.77-.91-.49-.25-.97-.52-1.46-.79l-.28-.15c-.26-.13-.54-.29-.81-.47-.24-.13-.5-.28-.76-.43-.19-.1-.39-.22-.58-.34l-.27-.15c-.19-.11-.38-.22-.56-.34l-.71-.44s-.08-.04-.15-.08l-.09-.05c-.34-.2-.66-.41-1-.63-.23-.13-.47-.29-.72-.47l-.18-.12c-.17-.11-.35-.22-.51-.34-.15-.09-.31-.2-.47-.31l-.32-.21-.77-.54c-.05-.03-.11-.06-.15-.1-.13-.08-.25-.17-.39-.27-.12-.09-.22-.17-.34-.24-1.43-1-2.87-2.08-4.43-3.33-.21-.16-.41-.32-.62-.51-.08-.06-.14-.11-.2-.17-.14-.1-.33-.25-.51-.41-.25-.21-.51-.42-.78-.63l-.25-.21c-.16-.14-.33-.28-.49-.42l-.23-.2-.46-.42c-.78-.66-1.59-1.39-2.45-2.21l-.89-.86h39.64l.09.04c.73.3,1.47.56,2.22.82.79.29,1.57.56,2.36.81.73.23,1.48.46,2.22.67.12.03.16.04.21.06.49.14,1.02.29,1.53.42.34.08.68.16,1,.25.27.06.58.13.88.2l.22.05c.9.2,1.8.4,2.71.55l.37.07c.21.04.42.08.63.11.15.04.26.05.37.07l.36.06c.26.04.52.09.78.12.61.1,1.2.18,1.79.25l.65.09c.43.05.86.11,1.29.14.48.05.97.1,1.45.13.33.03.66.06.97.08.5.03.93.06,1.38.08.41.03.81.04,1.21.06h.41c.73.03,1.48.04,2.22.04,41.15,0,74.62-33.47,74.62-74.62,0-.74-.01-1.45-.03-2.18-.02-.62-.04-1.26-.08-1.88-.02-.38-.04-.76-.07-1.13-.01-.31-.04-.59-.07-.88-.03-.48-.06-.89-.12-1.3-.05-.61-.12-1.21-.19-1.79-.07-.55-.14-1.11-.23-1.66-.24-1.67-.54-3.35-.89-5-.11-.52-.23-1.04-.35-1.54-.01-.05-.11-.45-.11-.45-.14-.55-.28-1.09-.43-1.62-.02-.12-.05-.2-.06-.23-.18-.71-.37-1.35-.56-1.98-.2-.68-.42-1.36-.65-2.04-.14-.42-.28-.83-.43-1.25l-.22-.64-.07-.07v-.13s-.08-.19-.08-.19c-.21-.57-.43-1.15-.67-1.71-.29-.72-.55-1.34-.82-1.96-.28-.67-.56-1.31-.87-1.93-.29-.64-.54-1.17-.78-1.64h0l-.15-.28c-.95-1.9-1.99-3.76-3.07-5.52h-26.35v49.07h-49.07v49.05l-64.46.02-.15-.19c-1.74-2.21-3.51-4.74-5.26-7.52l-.08-.12v-.02c-.46-.72-.86-1.38-1.25-2.05l-.48-.81c-.38-.67-.76-1.32-1.12-1.97-.1-.2-.51-.95-.61-1.14-.37-.69-.72-1.36-1.07-2.05-.13-.27-.27-.54-.41-.8-1.06-2.15-1.98-4.21-2.74-6.12l-.04-.1c-.75-1.84-1.46-3.77-2.11-5.74-.41-1.19-.78-2.39-1.13-3.64-.12-.4-.23-.81-.34-1.22l-.04-.14c-.51-1.81-.98-3.74-1.47-6.05-.16-.79-.31-1.59-.44-2.38l-.04-.2c-.02-.11-.04-.22-.06-.33-.13-.75-.25-1.5-.36-2.26-.47-3.18-.78-6.32-.92-9.33-.02-.37-.04-.76-.05-1.13-.05-1.13-.08-2.35-.08-3.82C7.5,50.79,50.79,7.5,104,7.5c1.19,0,2.28.02,3.32.07.54,0,1.1.03,1.66.06.7.03,1.42.08,2.13.13.37.02.74.04,1.1.09.5.03,1.05.08,1.6.14l.25.03c.71.07,1.39.14,2.04.23.18.02.38.04.58.07.59.08,1.2.16,1.8.25l.14.02c.06.02.11.02.17.03l.11.02c.72.11,1.48.23,2.21.37l.36.06c.5.09.99.17,1.48.28l.31.06c.25.05.5.09.74.15l1.47.32c.52.12,1.05.24,1.57.37.61.15,1.2.3,1.79.46.71.18,1.44.39,2.14.6.72.2,1.43.42,2.14.64,2.13.68,4.24,1.43,6.26,2.22,1.42.56,2.88,1.17,4.33,1.83.03,0,.22.1.22.1.48.22.96.44,1.45.67.13.06,1.15.56,1.38.67,0,0,1,.5,1.28.64.51.26,1,.53,1.5.79l.46.24c.53.3,1.05.59,1.56.88l.25.14c.34.2.69.39,1.03.6.52.31,1.06.63,1.59.95.58.35,1.14.71,1.68,1.06.45.29.9.59,1.36.9l.48.32c.61.39,1.25.84,2.03,1.4.46.32.92.66,1.38.99l.49.36c.38.29.74.57,1.1.85l1.38,1.09c.62.5,1.25,1,1.84,1.52l1.02.88h-47.27l-.49-.09-.37-.08c-.43-.1-.87-.19-1.3-.26-1.57-.29-3.12-.53-4.6-.71l-.29-.04c-.31-.04-.62-.08-.94-.1-.23-.03-.4-.05-.6-.06-.46-.05-.9-.09-1.33-.12l-.26-.02c-.17-.02-.34-.03-.51-.04-.41-.03-.81-.05-1.2-.07-.66-.04-1.24-.07-1.84-.08-.73-.02-1.45-.03-2.17-.03-41.15,0-74.62,33.47-74.62,74.62,0,1.46.04,2.77.11,3.99.03.67.08,1.32.13,1.97.06.86.15,1.69.25,2.51.03.39.08.76.13,1.12l.04.29c.08.62.17,1.22.26,1.82l.02.02.02.17c.08.62.2,1.24.32,1.86.11.64.24,1.28.38,1.9.13.64.27,1.26.43,1.87.15.63.31,1.26.48,1.87.16.63.34,1.25.52,1.85.18.6.37,1.22.57,1.82.73,2.29,1.6,4.57,2.57,6.8l.14.3c.84,1.91,1.75,3.76,2.71,5.5h30.29v-49.06h49.07v-49.06h59.74l.15.17c.29.33.57.67.84,1.02l.27.33c3.2,3.94,6.12,8.15,8.67,12.52,1.34,2.31,2.6,4.7,3.74,7.09.2.42.4.84.59,1.27l.17.37c.88,1.96,1.69,3.92,2.4,5.84.47,1.26.95,2.65,1.47,4.24.2.59.38,1.18.56,1.79.19.58.35,1.16.51,1.76.22.78.44,1.57.63,2.35.06.23.12.49.18.74l.04.16c.14.53.26,1.05.37,1.59.09.36.17.73.25,1.12.16.74.31,1.5.44,2.24.17.94.34,1.87.48,2.8.13.78.24,1.58.33,2.39.05.23.08.51.11.79.01.08.02.19.02.3.05.28.1.66.14,1.04l.03.25c.05.49.1.99.14,1.46.12,1.31.21,2.63.27,3.9.04.81.08,1.64.1,2.47.01.36.02.72.02,1.09,0,.46,0,.93,0,1.39,0,53.21-43.29,96.5-96.5,96.5Z"/>
      <path class="cls-5" d="M104,8c1.11,0,2.2.02,3.3.07.55,0,1.1.03,1.66.06.7.03,1.42.08,2.12.13.35.02.71.04,1.06.09.54.03,1.08.08,1.62.14.08.01.16.02.24.03.68.07,1.37.14,2.04.23.19.02.38.04.57.07.63.08,1.26.17,1.89.26.11.03.21.04.32.06.73.11,1.48.23,2.21.37.62.11,1.22.21,1.83.34.35.07.7.13,1.04.21.4.09.79.17,1.19.26.61.14,1.23.28,1.84.43.6.15,1.19.3,1.78.46.71.18,1.43.39,2.13.6.72.2,1.43.42,2.13.64,2.1.67,4.19,1.41,6.23,2.21,1.45.57,2.89,1.18,4.31,1.82.08.03.14.07.22.1.48.22.96.44,1.44.67.15.07.29.14.45.22.31.15.61.3.93.45.42.21.85.42,1.26.63.66.34,1.31.69,1.95,1.03.52.29,1.04.58,1.55.87.42.24.85.48,1.26.73.53.31,1.06.63,1.59.95.57.35,1.13.7,1.67,1.05.61.39,1.22.81,1.83,1.22.68.44,1.35.91,2.01,1.39.63.44,1.25.9,1.87,1.35.62.47,1.22.95,1.83,1.42.22.17.42.34.64.51.61.49,1.23.99,1.82,1.5h-45.93c-.25-.05-.51-.11-.76-.16-.43-.1-.88-.19-1.32-.26-1.52-.28-3.06-.52-4.62-.71-.41-.05-.83-.11-1.25-.14-.21-.03-.4-.05-.61-.06-.43-.05-.88-.09-1.32-.12-.26-.02-.53-.05-.79-.06-.41-.03-.84-.05-1.25-.07-.61-.04-1.2-.07-1.8-.08-.73-.02-1.45-.03-2.18-.03-41.49,0-75.12,33.63-75.12,75.12,0,1.35.03,2.69.11,4.02.03.67.08,1.34.13,2,.06.84.15,1.68.25,2.51.04.48.11.96.17,1.42.08.66.18,1.3.28,1.94,0,.02,0,.04.02.06.08.63.2,1.26.32,1.89.11.64.24,1.28.38,1.91.13.64.27,1.27.43,1.89.15.63.31,1.26.48,1.88.16.63.34,1.25.52,1.86.18.61.37,1.23.58,1.84.78,2.44,1.69,4.82,2.72,7.14h.01c.87,1.98,1.82,3.91,2.87,5.8h31.09v-49.06h49.07v-49.06h59.01c.38.44.74.89,1.11,1.34,3.28,4.03,6.13,8.18,8.62,12.45,1.34,2.32,2.58,4.67,3.72,7.05.26.54.51,1.09.76,1.63.86,1.91,1.66,3.84,2.39,5.8.52,1.39,1,2.8,1.46,4.22.2.59.38,1.17.55,1.77.19.59.35,1.16.51,1.75.22.78.44,1.56.63,2.34.08.29.15.6.22.9.14.53.26,1.05.37,1.58.09.37.17.74.25,1.12.16.74.31,1.49.44,2.22.17.93.34,1.86.48,2.79.13.78.24,1.57.33,2.37.05.26.08.53.11.79.01.07.02.16.02.24.06.35.1.72.14,1.09,0,.09.02.18.03.26.05.48.1.97.14,1.44.12,1.3.21,2.59.27,3.88.04.81.08,1.63.1,2.46.01.36.02.71.02,1.08,0,.47,0,.93,0,1.39,0,53.02-42.98,96-96,96-.82,0-1.65-.01-2.47-.03-.83-.02-1.65-.06-2.46-.1-.49-.02-.98-.04-1.46-.09-.49-.02-.97-.06-1.46-.09-.41-.04-.82-.08-1.24-.12-.45-.04-.9-.08-1.34-.13-.58-.06-1.14-.12-1.7-.2-.28-.03-.54-.06-.81-.11-.04-.01-.1-.01-.15-.02-.04-.01-.09-.01-.13-.02-.59-.08-1.18-.16-1.77-.26-.46-.07-.94-.14-1.41-.23-.34-.05-.68-.12-1.03-.18-.43-.08-.88-.17-1.32-.25-.28-.06-.55-.11-.84-.18-.61-.12-1.22-.26-1.84-.4-.46-.1-.92-.2-1.39-.32-.3-.08-.62-.16-.92-.23-.13-.03-.26-.07-.39-.1-.11-.03-.22-.06-.33-.1-.23-.05-.46-.12-.69-.17-.24-.06-.47-.13-.69-.2-.18-.05-.35-.09-.51-.14-.18-.05-.35-.09-.51-.15-.35-.1-.69-.19-1.02-.3-.35-.11-.7-.21-1.04-.32-.11-.03-.22-.06-.33-.1-.35-.11-.68-.22-1.03-.34-.1-.03-.18-.07-.28-.1-.24-.07-.48-.16-.71-.24-.24-.07-.47-.16-.7-.25-.08-.02-.17-.04-.24-.07-.47-.16-.93-.34-1.39-.51-.47-.18-.92-.35-1.38-.53-.01-.01-.03-.01-.04-.03l-.42-.16c-.49-.19-.99-.4-1.48-.61-.03-.01-.05-.02-.08-.03-.05-.02-.1-.03-.15-.05-.07-.03-.16-.07-.25-.1-.18-.08-.35-.16-.54-.24-.54-.24-1.09-.48-1.62-.71h-.02c-.59-.28-1.19-.56-1.79-.84-.58-.28-1.18-.57-1.76-.87-.59-.29-1.17-.59-1.76-.91-.59-.3-1.16-.62-1.74-.94-.26-.13-.52-.28-.78-.45-.27-.15-.53-.3-.79-.45-.18-.1-.37-.21-.56-.33-.27-.16-.56-.32-.83-.49-.23-.15-.47-.29-.7-.44-.09-.04-.16-.09-.25-.14-.33-.2-.65-.4-.98-.62-.24-.14-.47-.29-.71-.46-.23-.15-.47-.3-.7-.46-.27-.17-.54-.36-.8-.53-.27-.19-.53-.37-.8-.56-.03-.01-.07-.03-.1-.06-.13-.08-.25-.16-.38-.26-.13-.1-.25-.19-.38-.27-1.5-1.05-2.95-2.15-4.38-3.29-.21-.16-.4-.32-.61-.5-.05-.04-.11-.08-.17-.14-.18-.14-.36-.28-.53-.43-.26-.22-.53-.44-.8-.65-.23-.2-.47-.4-.7-.61-.08-.07-.16-.14-.24-.21-.15-.14-.3-.27-.45-.41-.84-.71-1.65-1.45-2.44-2.21h38.3c.74.3,1.49.57,2.24.83.79.29,1.58.56,2.37.81.74.23,1.49.46,2.24.67.05.02.12.03.18.05.52.15,1.05.3,1.57.43.34.08.67.16.99.25.37.08.74.17,1.12.26.91.2,1.82.4,2.74.56.34.06.68.13,1.01.18.12.03.24.05.36.07.38.06.77.13,1.15.18.6.1,1.2.18,1.8.25.17.02.34.05.51.07.49.06.96.12,1.45.16.48.05.97.1,1.46.13.32.03.65.06.97.08.46.03.92.06,1.39.08.53.04,1.07.05,1.62.07.74.02,1.49.03,2.24.03,41.49,0,75.12-33.63,75.12-75.12,0-.74-.01-1.46-.03-2.19-.02-.63-.04-1.27-.08-1.9-.02-.38-.04-.76-.07-1.14,0-.3-.04-.59-.07-.89-.03-.43-.06-.87-.12-1.31-.05-.59-.12-1.19-.19-1.78-.07-.56-.14-1.12-.23-1.68-.24-1.7-.54-3.37-.9-5.03-.11-.52-.23-1.04-.35-1.55-.03-.11-.05-.22-.08-.34-.15-.59-.3-1.18-.46-1.75,0-.09-.04-.18-.08-.28-.16-.65-.35-1.3-.55-1.94-.2-.68-.42-1.36-.65-2.05-.22-.67-.46-1.33-.69-2t0-.03c-.25-.66-.5-1.33-.77-1.99-.27-.66-.54-1.32-.83-1.97-.28-.66-.56-1.31-.88-1.95-.29-.65-.59-1.29-.92-1.92h-.01c-.99-1.98-2.07-3.92-3.24-5.8h-27.13v49.07h-49.07v49.05h0l-63.71.02c-1.85-2.35-3.6-4.89-5.23-7.48,0-.01,0-.03-.02-.04-.45-.71-.88-1.42-1.3-2.14-.16-.27-.32-.54-.48-.81-.38-.66-.75-1.31-1.11-1.96-.2-.38-.41-.75-.61-1.13-.37-.69-.72-1.36-1.06-2.04-.13-.27-.27-.54-.41-.81-1.04-2.11-1.96-4.16-2.72-6.07h0c-.78-1.92-1.49-3.85-2.14-5.81-.41-1.2-.78-2.4-1.12-3.62-.14-.45-.26-.91-.38-1.36-.56-1.99-1.03-3.99-1.46-6.02-.16-.78-.31-1.57-.44-2.36-.03-.17-.07-.34-.1-.53-.13-.75-.25-1.5-.36-2.26-.45-3.05-.77-6.14-.92-9.28-.02-.37-.04-.75-.05-1.12-.06-1.26-.08-2.53-.08-3.81C8,50.97,50.99,8,104,8M104,7C50.51,7,7,50.51,7,104c0,1.45.03,2.71.08,3.86,0,.36.03.75.05,1.13.14,3.01.46,6.17.93,9.37.11.77.23,1.53.36,2.28.02.11.04.23.06.34l.04.19c.12.74.27,1.52.45,2.39.49,2.32.96,4.25,1.48,6.09l.04.15c.11.41.22.83.35,1.24.34,1.24.72,2.44,1.13,3.65.64,1.94,1.35,3.87,2.11,5.72l.05.13c.77,1.93,1.69,3.99,2.75,6.14.15.28.28.54.41.8.32.65.68,1.33,1.08,2.08.1.19.21.39.31.58.1.18.2.36.29.54.37.67.75,1.33,1.13,1.99l.04.07.44.75c.4.68.78,1.32,1.18,1.95h0s.15.25.15.25c1.76,2.8,3.54,5.34,5.29,7.57l.3.38h.49s63.71-.02,63.71-.02h1s0-1,0-1v-48.05h49.07v-49.07h25.57c1.03,1.68,2,3.44,2.9,5.25l.28.55h.02c.19.39.4.83.62,1.33.33.66.61,1.32.87,1.93.29.65.56,1.32.83,1.96.23.56.45,1.13.66,1.7l.04.1v.22l.13.14c.06.18.12.36.19.54.15.42.29.83.43,1.25.27.81.47,1.43.64,2.02.23.74.4,1.34.54,1.9l.02.07.03.06s.02.04.02.06v.08s.02.04.02.04c.16.56.31,1.14.45,1.73l.03.12c.02.08.04.16.06.24.11.47.23.98.34,1.49.36,1.64.65,3.31.89,4.96.09.57.16,1.12.23,1.66.07.57.14,1.16.19,1.74v.03s0,.03,0,.03c.05.39.08.8.11,1.2h0s0,.08,0,.08v.06c.03.26.06.51.07.76.03.42.05.79.07,1.16.04.62.06,1.24.08,1.85.02.75.03,1.46.03,2.19,0,40.87-33.25,74.12-74.12,74.12-.74,0-1.48,0-2.21-.03h-.39c-.4-.03-.79-.04-1.18-.07-.49-.02-.94-.05-1.39-.08-.32-.02-.64-.05-.95-.08-.51-.03-.98-.08-1.45-.13-.45-.04-.86-.09-1.29-.14l-.14-.02c-.08,0-.15-.02-.23-.03-.1-.01-.19-.03-.29-.04-.66-.08-1.23-.16-1.75-.24-.28-.04-.54-.08-.79-.12l-.36-.06c-.09-.01-.18-.03-.27-.05h-.05s-.05-.02-.05-.02c-.2-.03-.41-.07-.61-.11l-.37-.07c-.9-.16-1.81-.36-2.7-.55l-.2-.05c-.3-.07-.6-.14-.9-.21-.32-.09-.66-.17-1-.25-.49-.12-1.01-.27-1.52-.42-.01,0-.07-.02-.13-.03h0s-.05-.02-.05-.02c-.74-.21-1.48-.43-2.21-.66-.77-.24-1.55-.51-2.32-.79-.62-.22-1.42-.5-2.21-.82l-.18-.07h-40.98l1.79,1.72c.87.83,1.68,1.57,2.49,2.25.04.04.12.11.2.19.07.06.14.13.21.19l.26.23c.15.14.32.28.49.43l.22.19.02.02.02.02c.26.2.52.41.77.62.16.14.34.28.52.43.06.06.12.1.18.15.22.19.42.36.65.53,1.55,1.24,3,2.33,4.41,3.31l.02.02.03.02c.1.06.19.13.29.21.14.11.27.19.4.28.06.05.13.09.19.12l.3.21.42.3c.13.09.23.15.34.22.17.11.34.23.51.33.14.1.32.21.49.33l.19.13c.23.16.48.32.73.47.33.22.66.42.99.63l.09.05c.06.04.12.07.19.1.1.07.21.13.32.2.11.07.22.14.33.21.2.13.4.24.59.35l.27.16c.18.12.39.23.58.34.26.15.5.29.76.43.28.18.57.35.85.49l.23.13c.5.28.99.55,1.5.81.58.32,1.17.62,1.77.92.57.3,1.18.59,1.77.87.63.29,1.22.57,1.8.84l.2.1h.04c.47.2.95.41,1.42.62.14.06.24.11.35.16l.19.08.04.02.05.02c.05.02.1.04.15.06h.01s.04.02.04.02c.05.02.11.04.16.06h.03s.02.02.02.02c0,0,.01,0,.03.01.49.21.99.42,1.49.61l.25.09.02.02.19.07c.33.13.65.25.98.38l.41.16.41.15c.33.12.66.25.99.36.09.03.19.06.28.09.21.08.44.17.7.25l.14.05c.19.07.4.14.59.2.02,0,.04.01.06.02.07.03.14.05.21.08.32.11.66.22,1.02.34.09.04.23.07.37.11.15.05.35.11.56.17.15.04.3.09.45.14.25.08.52.16.8.24l.21.06c.14.05.28.09.43.13l.12.03c.08.03.2.06.33.09l.18.05c.2.07.45.14.72.21.13.03.23.06.33.08.11.03.21.06.32.08.11.04.23.07.34.1.09.02.14.04.2.05.08.02.15.04.23.06.29.07.6.14.89.22.49.13.96.23,1.43.33l.19.04c.56.13,1.12.25,1.67.36.16.04.36.08.56.12l.27.06c.28.05.53.1.78.15l.57.11.39.07c.23.04.45.08.68.12.38.07.82.14,1.24.2l.17.03c.58.1,1.17.18,1.76.26.04,0,.08.01.12.02-.02,0-.04,0-.07-.01.1.02.16.03.22.03.31.06.59.09.88.12.55.08,1.12.14,1.7.2.44.05.89.09,1.35.13l1.24.12.53.04c.32.02.64.04.96.06.5.05,1,.07,1.49.09.81.04,1.64.08,2.48.1.83.02,1.67.03,2.49.03,53.49,0,97-43.51,97-97,0-.47,0-.93,0-1.41,0-.35,0-.7-.02-1.06-.02-.86-.06-1.69-.1-2.51-.06-1.28-.15-2.6-.27-3.92-.04-.47-.09-.97-.14-1.45l-.03-.26c-.04-.36-.08-.72-.14-1.08,0-.1-.02-.2-.03-.29-.03-.26-.06-.53-.11-.79-.09-.8-.2-1.61-.33-2.39-.14-.93-.31-1.88-.48-2.8-.13-.71-.28-1.46-.45-2.25-.08-.39-.16-.77-.26-1.15-.12-.56-.24-1.09-.38-1.6l-.03-.11c-.06-.27-.13-.54-.2-.8-.19-.78-.41-1.58-.63-2.35-.15-.54-.31-1.15-.52-1.78-.17-.6-.35-1.19-.56-1.78-.52-1.59-1-2.99-1.47-4.25-.71-1.91-1.52-3.88-2.41-5.86l-.18-.39c-.19-.42-.39-.84-.59-1.26-1.15-2.39-2.41-4.79-3.76-7.12-2.56-4.4-5.49-8.63-8.71-12.58l-.29-.36c-.28-.34-.55-.67-.84-1.01l-.3-.35h-60.47v49.06h-49.07v49.06h-29.5c-.9-1.66-1.76-3.41-2.55-5.2l-.26-.6h0c-.92-2.12-1.73-4.28-2.42-6.44-.23-.67-.43-1.32-.57-1.82-.17-.58-.35-1.2-.51-1.82-.17-.63-.33-1.25-.48-1.87-.15-.57-.28-1.17-.42-1.86-.15-.69-.27-1.3-.37-1.88-.12-.62-.24-1.25-.31-1.85l-.04-.34-.02-.02c-.08-.53-.16-1.07-.23-1.63l-.04-.28c-.05-.36-.1-.73-.13-1.1-.12-1-.2-1.78-.25-2.5-.05-.65-.1-1.31-.13-1.97-.07-1.23-.11-2.52-.11-3.98,0-40.87,33.25-74.12,74.12-74.12.72,0,1.43,0,2.15.03.53,0,1.07.03,1.76.08h.12c.37.02.76.04,1.12.07.19,0,.36.02.52.04l.27.02c.43.03.87.07,1.28.12h.03s.03,0,.03,0c.18,0,.34.03.52.05h.04s.04,0,.04,0c.31.02.61.06.91.1l.29.04c1.48.18,3.01.42,4.56.7.42.07.85.15,1.27.25.15.03.27.06.4.08.13.03.26.06.39.08l.1.02h48.71l-2.03-1.76c-.59-.51-1.21-1.01-1.85-1.52-.12-.09-.22-.17-.32-.25-.11-.09-.22-.18-.34-.27-.25-.19-.5-.39-.75-.58-.36-.28-.72-.56-1.09-.84l-.52-.38c-.46-.34-.92-.67-1.39-1-.76-.55-1.41-1-2.04-1.41l-.45-.31c-.46-.31-.92-.62-1.38-.92-.54-.35-1.11-.71-1.69-1.06l-.05-.03c-.52-.31-1.04-.63-1.56-.93-.32-.19-.66-.39-1-.58l-.27-.15c-.51-.29-1.04-.58-1.56-.88l-.45-.24c-.5-.27-1.01-.54-1.53-.81-.28-.14-.56-.28-.84-.42l-.43-.21c-.23-.11-.43-.21-.63-.3l-.32-.15c-.16-.08-.31-.15-.46-.23-.47-.23-.95-.45-1.43-.67l-.03-.02-.05-.02c-.06-.03-.12-.06-.18-.08-1.46-.66-2.91-1.27-4.33-1.83-2.04-.8-4.15-1.55-6.29-2.23-.65-.2-1.4-.44-2.17-.65-.63-.19-1.39-.41-2.15-.61-.58-.16-1.18-.31-1.78-.46-.53-.13-1.06-.25-1.59-.37l-.27-.06c-.21-.05-.41-.09-.61-.13-.19-.04-.39-.08-.58-.13-.24-.06-.49-.1-.74-.15l-.32-.06c-.49-.11-.99-.19-1.5-.28l-.35-.06c-.8-.15-1.62-.28-2.24-.37l-.09-.02s-.07,0-.11-.02l-.06-.02h-.06c-.65-.1-1.28-.19-1.91-.27-.18-.03-.38-.05-.59-.07-.62-.08-1.29-.15-1.95-.22h-.09s-.22-.04-.22-.04c-.62-.07-1.15-.12-1.65-.14-.37-.05-.73-.07-1.08-.09-.71-.05-1.44-.1-2.15-.13-.56-.03-1.12-.05-1.69-.06-1.02-.05-2.12-.07-3.32-.07h0Z"/>
    </g>
    <g>
      <polygon class="cls-1" points="117.81 41.53 177.32 41.53 177.32 42.53 117.81 42.54 117.81 41.53"/>
      <path class="cls-5" d="M177.32,42.03h-59.01s0,0,0,0h59.01M177.32,41.03h-60.01v2h1s59.01,0,59.01,0v-2h0Z"/>
    </g>
    <g>
      <path class="cls-1" d="M180.37,46.67c-.33-.44-.67-.88-1.01-1.32h0c-.43-.56-.87-1.11-1.32-1.66l.77-.63c.45.55.9,1.11,1.33,1.68h0c.34.44.68.89,1.02,1.33l-.8.6Z"/>
      <path class="cls-5" d="M178.43,43.38c.49.6.97,1.21,1.45,1.82-.47-.61-.96-1.22-1.45-1.82M179.88,45.2c.3.39.6.78.89,1.17-.3-.39-.59-.78-.89-1.17M179.2,42.75l-1.55,1.26c.49.6.96,1.2,1.43,1.8h0c.3.39.59.77.89,1.16l1.6-1.2c-.3-.39-.6-.79-.9-1.18-.48-.62-.97-1.24-1.46-1.84h0Z"/>
    </g>
    <g>
      <polygon class="cls-1" points="180.38 46.68 181.16 46.06 181.26 46.19 180.46 46.8 180.38 46.68"/>
      <path class="cls-5" d="M180.77,46.37s.04.06.06.08c-.02-.03-.04-.06-.06-.08M180.83,46.46s.02.03.03.04c-.01-.01-.02-.03-.03-.04M181.56,45.77l-1.59,1.21.06.07,1.61-1.19-.07-.1h0ZM181.67,45.9l-1.64,1.15.03.05,1.6-1.2h0Z"/>
    </g>
    <g>
      <path class="cls-1" d="M186.62,56.08c-1.86-3.2-3.93-6.32-6.15-9.28l.8-.6c1.57,2.09,3.03,4.2,4.35,6.27.64,1.02,1.27,2.06,1.87,3.11l-.87.5Z"/>
      <path class="cls-5" d="M180.87,46.5c1.52,2.02,2.96,4.1,4.32,6.24.64,1.02,1.26,2.05,1.86,3.09-1.85-3.18-3.91-6.29-6.18-9.33M181.66,45.9l-1.6,1.2c2.21,2.95,4.27,6.06,6.12,9.23l1.73-1c-.6-1.04-1.23-2.09-1.88-3.12-1.33-2.1-2.8-4.22-4.37-6.31h0Z"/>
    </g>
    <g>
      <path class="cls-1" d="M190.32,63.1c-1.13-2.36-2.38-4.73-3.7-7.02l.86-.5c1.34,2.29,2.6,4.67,3.74,7.09l-.9.43Z"/>
      <path class="cls-5" d="M187.05,55.83c1.34,2.29,2.58,4.64,3.72,7.05-1.14-2.38-2.38-4.73-3.72-7.05M187.91,55.32l-1.73,1.01c1.32,2.28,2.56,4.63,3.68,6.98l1.81-.86c-1.15-2.43-2.41-4.83-3.76-7.13h0Z"/>
    </g>
  </g>
  <circle class="cls-3" cx="104" cy="104" r="96"/>
  <path class="cls-2" d="M191.53,64.51h-50.75v49.07h-49.07v49.06H27.99c-2.48-3.21-4.77-6.58-6.83-10.1-2.32-3.95-4.37-8.08-6.11-12.37-.78-1.91-1.5-3.84-2.15-5.8-.4-1.19-.77-2.4-1.12-3.61-.14-.46-.26-.91-.38-1.37-.55-1.98-1.03-3.99-1.45-6.02-.16-.78-.31-1.57-.44-2.35-.03-.17-.07-.35-.1-.53-.13-.75-.25-1.51-.36-2.27-.46-3.05-.77-6.14-.92-9.27-.02-.37-.04-.75-.05-1.13-.05-1.26-.08-2.53-.08-3.81C8,50.97,50.99,8,104,8c1.11,0,2.2.02,3.3.07.55.01,1.11.03,1.66.07.71.03,1.42.08,2.13.13.35.02.71.04,1.05.09.54.03,1.08.09,1.63.14.08.01.16.02.24.03.68.07,1.37.14,2.04.23.19.02.38.04.57.08.63.08,1.26.16,1.89.26.11.02.21.03.31.05.74.11,1.49.23,2.21.37.62.11,1.23.22,1.83.35.35.07.69.13,1.04.21.4.09.79.17,1.18.26.62.14,1.24.28,1.84.43.6.14,1.19.29,1.78.46.72.18,1.43.39,2.14.6.72.21,1.42.42,2.13.64,2.1.67,4.19,1.41,6.23,2.21,1.45.57,2.9,1.18,4.32,1.82.08.03.14.07.22.1.48.22.97.44,1.44.67.15.07.29.14.44.22.31.15.62.3.93.46.42.21.85.41,1.26.63.66.34,1.31.68,1.95,1.03.52.28,1.04.58,1.55.87.42.24.85.48,1.26.73.53.31,1.06.63,1.59.95.56.35,1.13.69,1.67,1.05.61.39,1.21.8,1.82,1.21.68.44,1.36.91,2.02,1.39.63.44,1.25.9,1.87,1.36.62.47,1.23.94,1.83,1.42.22.16.42.34.64.51.61.49,1.23.99,1.82,1.5h-45.93c-.25-.05-.51-.11-.76-.16-.43-.1-.88-.18-1.32-.26-1.52-.28-3.06-.52-4.62-.7-.41-.05-.82-.11-1.25-.14-.21-.03-.4-.05-.61-.07-.43-.04-.88-.09-1.32-.12-.26-.02-.53-.04-.79-.05-.41-.03-.83-.05-1.25-.08-.61-.03-1.2-.07-1.8-.08-.73-.02-1.45-.03-2.18-.03-41.49,0-75.12,33.63-75.12,75.12,0,1.36.03,2.69.11,4.02.03.67.08,1.33.13,2,.07.85.15,1.68.25,2.52.04.48.11.95.17,1.42.08.65.17,1.29.28,1.93,0,.02,0,.04.01.07.09.63.21,1.26.33,1.89.11.64.24,1.28.38,1.91.13.64.27,1.27.43,1.9.14.63.3,1.26.48,1.88.16.63.34,1.25.52,1.85.17.62.37,1.24.57,1.84.78,2.44,1.69,4.82,2.72,7.14h.01c.87,1.98,1.82,3.92,2.87,5.8h31.08v-49.06h49.07v-49.07h59.01c5.72,6.76,10.52,14.31,14.21,22.47Z"/>
  <path class="cls-4" d="M200,104c0,53.02-42.98,96-96,96-.82,0-1.65-.01-2.47-.03-.82-.02-1.65-.05-2.46-.1-.49-.02-.98-.04-1.45-.09-.49-.02-.98-.06-1.46-.1-.41-.03-.82-.08-1.24-.12-.46-.03-.9-.08-1.34-.13-.57-.05-1.14-.12-1.7-.2-.27-.03-.53-.06-.8-.11-.04-.01-.1-.01-.15-.02-.04-.01-.09-.01-.13-.02-.59-.08-1.18-.16-1.77-.26-.47-.07-.94-.14-1.41-.23-.35-.05-.68-.12-1.03-.18-.43-.08-.88-.16-1.32-.25-.28-.05-.55-.11-.84-.17-.62-.12-1.23-.26-1.84-.4-.46-.1-.92-.21-1.39-.33-.3-.08-.62-.15-.92-.23-.13-.03-.26-.07-.39-.1-.11-.03-.22-.07-.33-.1-.24-.05-.47-.12-.69-.17-.24-.07-.47-.13-.69-.2-.17-.05-.35-.1-.51-.14-.17-.05-.35-.1-.51-.15-.35-.1-.68-.2-1.02-.3-.35-.11-.69-.21-1.04-.31-.11-.03-.22-.07-.33-.11-.35-.11-.68-.22-1.03-.34-.1-.03-.18-.07-.28-.1-.24-.08-.48-.16-.7-.24-.24-.08-.48-.16-.7-.25-.08-.02-.16-.04-.24-.08-.47-.16-.93-.34-1.39-.51-.47-.17-.92-.35-1.38-.53-.01-.01-.03-.01-.04-.02l-.42-.16c-.49-.19-.99-.4-1.47-.61-.03-.01-.05-.02-.09-.03-.04-.02-.1-.03-.14-.05-.08-.03-.16-.07-.25-.1-.18-.08-.36-.16-.54-.24-.54-.24-1.1-.48-1.63-.72h-.01c-.6-.27-1.19-.55-1.79-.84-.59-.28-1.18-.57-1.77-.87s-1.17-.6-1.76-.91c-.59-.3-1.16-.62-1.74-.94-.26-.13-.52-.28-.78-.44-.27-.15-.53-.3-.79-.46-.18-.1-.37-.21-.56-.33-.27-.16-.55-.33-.82-.49-.24-.15-.48-.29-.7-.44-.09-.04-.16-.09-.25-.14-.33-.2-.65-.4-.98-.62-.24-.14-.48-.29-.72-.46-.23-.15-.47-.3-.69-.47-.27-.17-.54-.36-.8-.53-.27-.18-.53-.37-.8-.55-.03-.01-.07-.03-.1-.07-.13-.08-.25-.16-.38-.26-.13-.1-.25-.18-.38-.27-1.5-1.05-2.95-2.15-4.38-3.29-.21-.16-.4-.33-.61-.5-.05-.04-.11-.09-.17-.14-.17-.14-.36-.28-.53-.43-.26-.22-.53-.43-.79-.65-.24-.2-.48-.4-.7-.61-.08-.07-.16-.14-.24-.21-.15-.14-.3-.27-.46-.41-.83-.72-1.65-1.45-2.44-2.21h38.31c.74.3,1.49.57,2.23.83.79.28,1.58.55,2.38.8.74.24,1.49.47,2.23.67.05.02.12.03.18.05.52.15,1.05.29,1.57.42.34.09.66.16.99.25.37.09.74.17,1.12.26.91.21,1.82.4,2.74.56.34.07.67.13,1.01.18.12.02.24.04.36.07.38.07.77.13,1.15.18.6.1,1.2.17,1.8.25.17.02.34.04.51.07.49.06.96.12,1.45.16.48.05.97.1,1.45.13.33.03.65.05.98.08.46.03.92.07,1.39.09.53.03,1.07.04,1.62.06.75.02,1.5.03,2.24.03,41.49,0,75.12-33.63,75.12-75.12,0-.74-.01-1.46-.03-2.19-.02-.63-.04-1.27-.08-1.9-.02-.38-.04-.76-.08-1.14-.01-.3-.03-.6-.07-.89-.03-.43-.07-.88-.12-1.31-.05-.6-.12-1.19-.2-1.78-.06-.56-.14-1.13-.23-1.68-.24-1.7-.54-3.37-.9-5.03-.11-.52-.23-1.04-.35-1.55-.03-.11-.05-.22-.09-.34-.14-.6-.29-1.18-.46-1.76-.01-.09-.04-.17-.08-.27-.16-.65-.36-1.3-.55-1.94-.21-.68-.42-1.37-.65-2.05-.22-.67-.46-1.33-.69-2.01t-.01-.02c-.25-.66-.5-1.33-.77-2-.26-.66-.53-1.32-.82-1.97-.28-.65-.56-1.3-.88-1.94-.29-.65-.6-1.29-.92-1.92h-.01c-.99-1.98-2.07-3.93-3.24-5.8h23.62c.86,1.91,1.66,3.84,2.39,5.8.52,1.39,1.01,2.8,1.46,4.22.2.59.38,1.17.55,1.77.18.59.35,1.16.51,1.75.22.78.43,1.56.63,2.34.08.29.15.6.22.9.14.53.26,1.05.37,1.58.1.37.17.74.25,1.12.16.74.31,1.49.44,2.22.17.92.34,1.85.48,2.79.13.78.24,1.57.34,2.36.04.26.08.53.11.79.01.08.02.16.02.24.05.36.1.73.13,1.1.01.09.02.17.03.26.05.48.1.97.14,1.44.12,1.29.21,2.58.27,3.87.04.81.08,1.64.1,2.46.01.36.02.72.02,1.08.01.47.01.92.01,1.39Z"/>
  <path class="cls-6" d="M118.31,42.04l22.47,22.47h50.75c-3.56-7.84-8.21-15.36-14.21-22.47h-59.01Z"/>
  <path class="cls-6" d="M15.05,140.17c2.71,6.82,7.41,15.47,12.94,22.47h63.72s-22.47-22.47-22.47-22.47H15.05Z"/>
  <polygon class="cls-6" points="69.24 91.11 91.71 113.58 140.78 113.58 117.86 91.11 69.24 91.11"/>
</svg>